solid distal_1_corrected
   facet normal -9.604219e-001 0.000000e+000 -2.785495e-001
      outer loop
         vertex -3.185057e-009 7.000000e-003 -9.805234e-003
         vertex 3.232775e-004 7.000000e-003 -1.091988e-002
         vertex -3.185057e-009 -7.000000e-003 -9.805234e-003
      endloop
   endfacet
   facet normal -9.604219e-001 0.000000e+000 -2.785495e-001
      outer loop
         vertex -3.185057e-009 -7.000000e-003 -9.805234e-003
         vertex 3.232775e-004 7.000000e-003 -1.091988e-002
         vertex 3.232775e-004 -7.000000e-003 -1.091988e-002
      endloop
   endfacet
   facet normal -1.000000e+000 0.000000e+000 0.000000e+000
      outer loop
         vertex -3.185057e-009 7.000000e-003 -1.845863e-003
         vertex -3.185057e-009 7.000000e-003 -9.805234e-003
         vertex -3.185057e-009 -7.000000e-003 -1.845863e-003
      endloop
   endfacet
   facet normal -1.000000e+000 0.000000e+000 0.000000e+000
      outer loop
         vertex -3.185057e-009 -7.000000e-003 -1.845863e-003
         vertex -3.185057e-009 7.000000e-003 -9.805234e-003
         vertex -3.185057e-009 -7.000000e-003 -9.805234e-003
      endloop
   endfacet
   facet normal -9.083809e-001 0.000000e+000 4.181436e-001
      outer loop
         vertex 6.465582e-004 7.000000e-003 -4.412680e-004
         vertex -3.185057e-009 7.000000e-003 -1.845863e-003
         vertex 6.465582e-004 -7.000000e-003 -4.412680e-004
      endloop
   endfacet
   facet normal -9.083809e-001 0.000000e+000 4.181436e-001
      outer loop
         vertex 6.465582e-004 -7.000000e-003 -4.412680e-004
         vertex -3.185057e-009 7.000000e-003 -1.845863e-003
         vertex -3.185057e-009 -7.000000e-003 -1.845863e-003
      endloop
   endfacet
   facet normal -3.466502e-001 0.000000e+000 9.379945e-001
      outer loop
         vertex 1.840581e-003 7.000000e-003 1.059346e-010
         vertex 6.465582e-004 7.000000e-003 -4.412680e-004
         vertex 1.840581e-003 -7.000000e-003 1.059346e-010
      endloop
   endfacet
   facet normal -3.466502e-001 0.000000e+000 9.379945e-001
      outer loop
         vertex 1.840581e-003 -7.000000e-003 1.059346e-010
         vertex 6.465582e-004 7.000000e-003 -4.412680e-004
         vertex 6.465582e-004 -7.000000e-003 -4.412680e-004
      endloop
   endfacet
   facet normal 0.000000e+000 0.000000e+000 1.000000e+000
      outer loop
         vertex 2.784665e-002 7.000000e-003 1.059346e-010
         vertex 1.840581e-003 7.000000e-003 1.059346e-010
         vertex 2.784665e-002 -7.000000e-003 1.059346e-010
      endloop
   endfacet
   facet normal 0.000000e+000 0.000000e+000 1.000000e+000
      outer loop
         vertex 2.784665e-002 -7.000000e-003 1.059346e-010
         vertex 1.840581e-003 7.000000e-003 1.059346e-010
         vertex 1.840581e-003 -7.000000e-003 1.059346e-010
      endloop
   endfacet
   facet normal 2.495918e-001 0.000000e+000 9.683511e-001
      outer loop
         vertex 3.228339e-002 7.000000e-003 -1.143565e-003
         vertex 2.784665e-002 7.000000e-003 1.059346e-010
         vertex 3.228339e-002 -7.000000e-003 -1.143565e-003
      endloop
   endfacet
   facet normal 2.495918e-001 0.000000e+000 9.683511e-001
      outer loop
         vertex 3.228339e-002 -7.000000e-003 -1.143565e-003
         vertex 2.784665e-002 7.000000e-003 1.059346e-010
         vertex 2.784665e-002 -7.000000e-003 1.059346e-010
      endloop
   endfacet
   facet normal 5.867426e-001 0.000000e+000 8.097734e-001
      outer loop
         vertex 3.491421e-002 7.000000e-003 -3.049802e-003
         vertex 3.228339e-002 7.000000e-003 -1.143565e-003
         vertex 3.491421e-002 -7.000000e-003 -3.049802e-003
      endloop
   endfacet
   facet normal 5.867426e-001 0.000000e+000 8.097734e-001
      outer loop
         vertex 3.491421e-002 -7.000000e-003 -3.049802e-003
         vertex 3.228339e-002 7.000000e-003 -1.143565e-003
         vertex 3.228339e-002 -7.000000e-003 -1.143565e-003
      endloop
   endfacet
   facet normal 9.379945e-001 0.000000e+000 3.466502e-001
      outer loop
         vertex 3.547037e-002 7.000000e-003 -4.554692e-003
         vertex 3.491421e-002 7.000000e-003 -3.049802e-003
         vertex 3.547037e-002 -7.000000e-003 -4.554692e-003
      endloop
   endfacet
   facet normal 9.379945e-001 0.000000e+000 3.466502e-001
      outer loop
         vertex 3.547037e-002 -7.000000e-003 -4.554692e-003
         vertex 3.491421e-002 7.000000e-003 -3.049802e-003
         vertex 3.491421e-002 -7.000000e-003 -3.049802e-003
      endloop
   endfacet
   facet normal 9.083809e-001 0.000000e+000 -4.181436e-001
      outer loop
         vertex 3.469020e-002 7.000000e-003 -6.249551e-003
         vertex 3.547037e-002 7.000000e-003 -4.554692e-003
         vertex 3.469020e-002 -7.000000e-003 -6.249551e-003
      endloop
   endfacet
   facet normal 9.083809e-001 0.000000e+000 -4.181436e-001
      outer loop
         vertex 3.469020e-002 -7.000000e-003 -6.249551e-003
         vertex 3.547037e-002 7.000000e-003 -4.554692e-003
         vertex 3.547037e-002 -7.000000e-003 -4.554692e-003
      endloop
   endfacet
   facet normal 7.016528e-001 0.000000e+000 -7.125190e-001
      outer loop
         vertex 3.107945e-002 7.000000e-003 -9.805234e-003
         vertex 3.469020e-002 7.000000e-003 -6.249551e-003
         vertex 3.107945e-002 -7.000000e-003 -9.805234e-003
      endloop
   endfacet
   facet normal 7.016528e-001 0.000000e+000 -7.125190e-001
      outer loop
         vertex 3.107945e-002 -7.000000e-003 -9.805234e-003
         vertex 3.469020e-002 7.000000e-003 -6.249551e-003
         vertex 3.469020e-002 -7.000000e-003 -6.249551e-003
      endloop
   endfacet
   facet normal 3.466502e-001 0.000000e+000 -9.379945e-001
      outer loop
         vertex 2.963172e-002 7.000000e-003 -1.034026e-002
         vertex 3.107945e-002 7.000000e-003 -9.805234e-003
         vertex 2.963172e-002 -7.000000e-003 -1.034026e-002
      endloop
   endfacet
   facet normal 3.466502e-001 0.000000e+000 -9.379945e-001
      outer loop
         vertex 2.963172e-002 -7.000000e-003 -1.034026e-002
         vertex 3.107945e-002 7.000000e-003 -9.805234e-003
         vertex 3.107945e-002 -7.000000e-003 -9.805234e-003
      endloop
   endfacet
   facet normal 0.000000e+000 0.000000e+000 -1.000000e+000
      outer loop
         vertex 8.984950e-003 7.000000e-003 -1.034026e-002
         vertex 2.963172e-002 7.000000e-003 -1.034026e-002
         vertex 8.984950e-003 -7.000000e-003 -1.034026e-002
      endloop
   endfacet
   facet normal 0.000000e+000 0.000000e+000 -1.000000e+000
      outer loop
         vertex 8.984950e-003 -7.000000e-003 -1.034026e-002
         vertex 2.963172e-002 7.000000e-003 -1.034026e-002
         vertex 2.963172e-002 -7.000000e-003 -1.034026e-002
      endloop
   endfacet
   facet normal 2.425504e-001 0.000000e+000 -9.701388e-001
      outer loop
         vertex 5.685267e-003 7.000000e-003 -1.116524e-002
         vertex 8.984950e-003 7.000000e-003 -1.034026e-002
         vertex 5.685267e-003 -7.000000e-003 -1.116524e-002
      endloop
   endfacet
   facet normal 2.425504e-001 0.000000e+000 -9.701388e-001
      outer loop
         vertex 5.685267e-003 -7.000000e-003 -1.116524e-002
         vertex 8.984950e-003 7.000000e-003 -1.034026e-002
         vertex 8.984950e-003 -7.000000e-003 -1.034026e-002
      endloop
   endfacet
   facet normal 3.466502e-001 0.000000e+000 -9.379945e-001
      outer loop
         vertex 3.450316e-003 7.000000e-003 -1.199120e-002
         vertex 5.685267e-003 7.000000e-003 -1.116524e-002
         vertex 3.450316e-003 -7.000000e-003 -1.199120e-002
      endloop
   endfacet
   facet normal 3.466502e-001 0.000000e+000 -9.379945e-001
      outer loop
         vertex 3.450316e-003 -7.000000e-003 -1.199120e-002
         vertex 5.685267e-003 7.000000e-003 -1.116524e-002
         vertex 5.685267e-003 -7.000000e-003 -1.116524e-002
      endloop
   endfacet
   facet normal -2.495918e-001 0.000000e+000 -9.683511e-001
      outer loop
         vertex 1.633075e-003 7.000000e-003 -1.152281e-002
         vertex 3.450316e-003 7.000000e-003 -1.199120e-002
         vertex 1.633075e-003 -7.000000e-003 -1.152281e-002
      endloop
   endfacet
   facet normal -2.495918e-001 0.000000e+000 -9.683511e-001
      outer loop
         vertex 1.633075e-003 -7.000000e-003 -1.152281e-002
         vertex 3.450316e-003 7.000000e-003 -1.199120e-002
         vertex 3.450316e-003 -7.000000e-003 -1.199120e-002
      endloop
   endfacet
   facet normal -4.181436e-001 0.000000e+000 -9.083809e-001
      outer loop
         vertex 3.232775e-004 7.000000e-003 -1.091988e-002
         vertex 1.633075e-003 7.000000e-003 -1.152281e-002
         vertex 3.232775e-004 -7.000000e-003 -1.091988e-002
      endloop
   endfacet
   facet normal -4.181436e-001 0.000000e+000 -9.083809e-001
      outer loop
         vertex 3.232775e-004 -7.000000e-003 -1.091988e-002
         vertex 1.633075e-003 7.000000e-003 -1.152281e-002
         vertex 1.633075e-003 -7.000000e-003 -1.152281e-002
      endloop
   endfacet
   facet normal 0.000000e+000 1.000000e+000 0.000000e+000
      outer loop
         vertex 3.469020e-002 7.000000e-003 -6.249551e-003
         vertex 3.107945e-002 7.000000e-003 -9.805234e-003
         vertex 2.963172e-002 7.000000e-003 -1.034026e-002
      endloop
   endfacet
   facet normal 0.000000e+000 1.000000e+000 0.000000e+000
      outer loop
         vertex 5.685267e-003 7.000000e-003 -1.116524e-002
         vertex 3.450316e-003 7.000000e-003 -1.199120e-002
         vertex 1.840581e-003 7.000000e-003 1.059346e-010
      endloop
   endfacet
   facet normal 0.000000e+000 1.000000e+000 0.000000e+000
      outer loop
         vertex 1.840581e-003 7.000000e-003 1.059346e-010
         vertex 3.450316e-003 7.000000e-003 -1.199120e-002
         vertex 1.633075e-003 7.000000e-003 -1.152281e-002
      endloop
   endfacet
   facet normal 0.000000e+000 1.000000e+000 0.000000e+000
      outer loop
         vertex 1.633075e-003 7.000000e-003 -1.152281e-002
         vertex 3.232775e-004 7.000000e-003 -1.091988e-002
         vertex -3.185057e-009 7.000000e-003 -9.805234e-003
      endloop
   endfacet
   facet normal 0.000000e+000 1.000000e+000 0.000000e+000
      outer loop
         vertex 3.491421e-002 7.000000e-003 -3.049802e-003
         vertex 3.547037e-002 7.000000e-003 -4.554692e-003
         vertex 3.228339e-002 7.000000e-003 -1.143565e-003
      endloop
   endfacet
   facet normal 0.000000e+000 1.000000e+000 0.000000e+000
      outer loop
         vertex 3.228339e-002 7.000000e-003 -1.143565e-003
         vertex 3.547037e-002 7.000000e-003 -4.554692e-003
         vertex 3.469020e-002 7.000000e-003 -6.249551e-003
      endloop
   endfacet
   facet normal 0.000000e+000 1.000000e+000 0.000000e+000
      outer loop
         vertex 3.228339e-002 7.000000e-003 -1.143565e-003
         vertex 3.469020e-002 7.000000e-003 -6.249551e-003
         vertex 2.784665e-002 7.000000e-003 1.059346e-010
      endloop
   endfacet
   facet normal 0.000000e+000 1.000000e+000 0.000000e+000
      outer loop
         vertex 2.784665e-002 7.000000e-003 1.059346e-010
         vertex 3.469020e-002 7.000000e-003 -6.249551e-003
         vertex 2.963172e-002 7.000000e-003 -1.034026e-002
      endloop
   endfacet
   facet normal 0.000000e+000 1.000000e+000 0.000000e+000
      outer loop
         vertex 2.784665e-002 7.000000e-003 1.059346e-010
         vertex 2.963172e-002 7.000000e-003 -1.034026e-002
         vertex 1.840581e-003 7.000000e-003 1.059346e-010
      endloop
   endfacet
   facet normal 0.000000e+000 1.000000e+000 0.000000e+000
      outer loop
         vertex 1.840581e-003 7.000000e-003 1.059346e-010
         vertex 2.963172e-002 7.000000e-003 -1.034026e-002
         vertex 8.984950e-003 7.000000e-003 -1.034026e-002
      endloop
   endfacet
   facet normal 0.000000e+000 1.000000e+000 0.000000e+000
      outer loop
         vertex 1.840581e-003 7.000000e-003 1.059346e-010
         vertex 8.984950e-003 7.000000e-003 -1.034026e-002
         vertex 5.685267e-003 7.000000e-003 -1.116524e-002
      endloop
   endfacet
   facet normal 0.000000e+000 1.000000e+000 0.000000e+000
      outer loop
         vertex 1.633075e-003 7.000000e-003 -1.152281e-002
         vertex -3.185057e-009 7.000000e-003 -9.805234e-003
         vertex 1.840581e-003 7.000000e-003 1.059346e-010
      endloop
   endfacet
   facet normal 0.000000e+000 1.000000e+000 0.000000e+000
      outer loop
         vertex 1.840581e-003 7.000000e-003 1.059346e-010
         vertex -3.185057e-009 7.000000e-003 -9.805234e-003
         vertex -3.185057e-009 7.000000e-003 -1.845863e-003
      endloop
   endfacet
   facet normal 0.000000e+000 1.000000e+000 0.000000e+000
      outer loop
         vertex 1.840581e-003 7.000000e-003 1.059346e-010
         vertex -3.185057e-009 7.000000e-003 -1.845863e-003
         vertex 6.465582e-004 7.000000e-003 -4.412680e-004
      endloop
   endfacet
   facet normal 0.000000e+000 -1.000000e+000 0.000000e+000
      outer loop
         vertex -3.185057e-009 -7.000000e-003 -9.805234e-003
         vertex 3.232775e-004 -7.000000e-003 -1.091988e-002
         vertex 1.633075e-003 -7.000000e-003 -1.152281e-002
      endloop
   endfacet
   facet normal 0.000000e+000 -1.000000e+000 0.000000e+000
      outer loop
         vertex 2.963172e-002 -7.000000e-003 -1.034026e-002
         vertex 2.784665e-002 -7.000000e-003 1.059346e-010
         vertex 8.984950e-003 -7.000000e-003 -1.034026e-002
      endloop
   endfacet
   facet normal 0.000000e+000 -1.000000e+000 0.000000e+000
      outer loop
         vertex 8.984950e-003 -7.000000e-003 -1.034026e-002
         vertex 2.784665e-002 -7.000000e-003 1.059346e-010
         vertex 1.840581e-003 -7.000000e-003 1.059346e-010
      endloop
   endfacet
   facet normal 0.000000e+000 -1.000000e+000 0.000000e+000
      outer loop
         vertex 8.984950e-003 -7.000000e-003 -1.034026e-002
         vertex 1.840581e-003 -7.000000e-003 1.059346e-010
         vertex 5.685267e-003 -7.000000e-003 -1.116524e-002
      endloop
   endfacet
   facet normal 0.000000e+000 -1.000000e+000 0.000000e+000
      outer loop
         vertex 5.685267e-003 -7.000000e-003 -1.116524e-002
         vertex 1.840581e-003 -7.000000e-003 1.059346e-010
         vertex 1.633075e-003 -7.000000e-003 -1.152281e-002
      endloop
   endfacet
   facet normal 0.000000e+000 -1.000000e+000 0.000000e+000
      outer loop
         vertex 5.685267e-003 -7.000000e-003 -1.116524e-002
         vertex 1.633075e-003 -7.000000e-003 -1.152281e-002
         vertex 3.450316e-003 -7.000000e-003 -1.199120e-002
      endloop
   endfacet
   facet normal 0.000000e+000 -1.000000e+000 0.000000e+000
      outer loop
         vertex 3.469020e-002 -7.000000e-003 -6.249551e-003
         vertex 3.547037e-002 -7.000000e-003 -4.554692e-003
         vertex 3.491421e-002 -7.000000e-003 -3.049802e-003
      endloop
   endfacet
   facet normal 0.000000e+000 -1.000000e+000 0.000000e+000
      outer loop
         vertex 2.963172e-002 -7.000000e-003 -1.034026e-002
         vertex 3.107945e-002 -7.000000e-003 -9.805234e-003
         vertex 2.784665e-002 -7.000000e-003 1.059346e-010
      endloop
   endfacet
   facet normal 0.000000e+000 -1.000000e+000 0.000000e+000
      outer loop
         vertex 2.784665e-002 -7.000000e-003 1.059346e-010
         vertex 3.107945e-002 -7.000000e-003 -9.805234e-003
         vertex 3.469020e-002 -7.000000e-003 -6.249551e-003
      endloop
   endfacet
   facet normal 0.000000e+000 -1.000000e+000 0.000000e+000
      outer loop
         vertex 2.784665e-002 -7.000000e-003 1.059346e-010
         vertex 3.469020e-002 -7.000000e-003 -6.249551e-003
         vertex 3.228339e-002 -7.000000e-003 -1.143565e-003
      endloop
   endfacet
   facet normal 0.000000e+000 -1.000000e+000 0.000000e+000
      outer loop
         vertex 3.228339e-002 -7.000000e-003 -1.143565e-003
         vertex 3.469020e-002 -7.000000e-003 -6.249551e-003
         vertex 3.491421e-002 -7.000000e-003 -3.049802e-003
      endloop
   endfacet
   facet normal 0.000000e+000 -1.000000e+000 0.000000e+000
      outer loop
         vertex -3.185057e-009 -7.000000e-003 -9.805234e-003
         vertex 1.633075e-003 -7.000000e-003 -1.152281e-002
         vertex -3.185057e-009 -7.000000e-003 -1.845863e-003
      endloop
   endfacet
   facet normal 0.000000e+000 -1.000000e+000 0.000000e+000
      outer loop
         vertex -3.185057e-009 -7.000000e-003 -1.845863e-003
         vertex 1.633075e-003 -7.000000e-003 -1.152281e-002
         vertex 1.840581e-003 -7.000000e-003 1.059346e-010
      endloop
   endfacet
   facet normal 0.000000e+000 -1.000000e+000 0.000000e+000
      outer loop
         vertex -3.185057e-009 -7.000000e-003 -1.845863e-003
         vertex 1.840581e-003 -7.000000e-003 1.059346e-010
         vertex 6.465582e-004 -7.000000e-003 -4.412680e-004
      endloop
   endfacet
endsolid