solid distal_pad_1_corrected
   facet normal 0.000000e+000 -1.000000e+000 0.000000e+000
      outer loop
         vertex 1.247276e-002 -8.000000e-003 -8.073369e-003
         vertex 1.200246e-002 -8.000000e-003 -7.947353e-003
         vertex 1.000000e-002 -8.000000e-003 -1.756241e-002
      endloop
   endfacet
   facet normal 0.000000e+000 -1.000000e+000 0.000000e+000
      outer loop
         vertex 1.000000e-002 -8.000000e-003 -1.756241e-002
         vertex 1.200246e-002 -8.000000e-003 -7.947353e-003
         vertex 1.165818e-002 -8.000000e-003 -7.603071e-003
      endloop
   endfacet
   facet normal 0.000000e+000 -1.000000e+000 0.000000e+000
      outer loop
         vertex 1.000000e-002 -8.000000e-003 -1.756241e-002
         vertex 1.165818e-002 -8.000000e-003 -7.603071e-003
         vertex 1.000000e-002 -8.000000e-003 -6.153464e-003
      endloop
   endfacet
   facet normal 0.000000e+000 -1.000000e+000 0.000000e+000
      outer loop
         vertex 4.755650e-002 -8.000000e-003 -4.684500e-003
         vertex 4.459409e-002 -8.000000e-003 -1.624160e-003
         vertex 4.231720e-002 -8.000000e-003 -5.469198e-004
      endloop
   endfacet
   facet normal 0.000000e+000 -1.000000e+000 0.000000e+000
      outer loop
         vertex 1.000000e-002 -8.000000e-003 -1.756241e-002
         vertex 1.409651e-002 -8.000000e-003 -1.055102e-002
         vertex 1.377968e-002 -8.000000e-003 -1.023419e-002
      endloop
   endfacet
   facet normal 0.000000e+000 -1.000000e+000 0.000000e+000
      outer loop
         vertex 4.383513e-002 -8.000000e-003 -1.592207e-002
         vertex 4.814408e-002 -8.000000e-003 -1.242104e-002
         vertex 4.897650e-002 -8.000000e-003 -9.042426e-003
      endloop
   endfacet
   facet normal 0.000000e+000 -1.000000e+000 0.000000e+000
      outer loop
         vertex 1.165818e-002 -8.000000e-003 -7.603071e-003
         vertex 1.153216e-002 -8.000000e-003 -7.132773e-003
         vertex 1.000000e-002 -8.000000e-003 -6.153464e-003
      endloop
   endfacet
   facet normal 0.000000e+000 -1.000000e+000 0.000000e+000
      outer loop
         vertex 1.000000e-002 -8.000000e-003 -6.153464e-003
         vertex 1.153216e-002 -8.000000e-003 -7.132773e-003
         vertex 1.165818e-002 -8.000000e-003 -6.662475e-003
      endloop
   endfacet
   facet normal 0.000000e+000 -1.000000e+000 0.000000e+000
      outer loop
         vertex 1.000000e-002 -8.000000e-003 -6.153464e-003
         vertex 1.165818e-002 -8.000000e-003 -6.662475e-003
         vertex 1.058758e-002 -8.000000e-003 -4.047949e-003
      endloop
   endfacet
   facet normal 0.000000e+000 -1.000000e+000 0.000000e+000
      outer loop
         vertex 1.058758e-002 -8.000000e-003 -4.047949e-003
         vertex 1.165818e-002 -8.000000e-003 -6.662475e-003
         vertex 1.200246e-002 -8.000000e-003 -6.318193e-003
      endloop
   endfacet
   facet normal 0.000000e+000 -1.000000e+000 0.000000e+000
      outer loop
         vertex 1.058758e-002 -8.000000e-003 -4.047949e-003
         vertex 1.200246e-002 -8.000000e-003 -6.318193e-003
         vertex 1.196791e-002 -8.000000e-003 -2.174210e-003
      endloop
   endfacet
   facet normal 0.000000e+000 -1.000000e+000 0.000000e+000
      outer loop
         vertex 1.196791e-002 -8.000000e-003 -2.174210e-003
         vertex 1.200246e-002 -8.000000e-003 -6.318193e-003
         vertex 1.247276e-002 -8.000000e-003 -6.192177e-003
      endloop
   endfacet
   facet normal 0.000000e+000 -1.000000e+000 0.000000e+000
      outer loop
         vertex 1.196791e-002 -8.000000e-003 -2.174210e-003
         vertex 1.247276e-002 -8.000000e-003 -6.192177e-003
         vertex 1.374860e-002 -8.000000e-003 -7.274020e-004
      endloop
   endfacet
   facet normal 0.000000e+000 -1.000000e+000 0.000000e+000
      outer loop
         vertex 1.374860e-002 -8.000000e-003 -7.274020e-004
         vertex 1.247276e-002 -8.000000e-003 -6.192177e-003
         vertex 1.294305e-002 -8.000000e-003 -6.318193e-003
      endloop
   endfacet
   facet normal 0.000000e+000 -1.000000e+000 0.000000e+000
      outer loop
         vertex 4.880512e-002 -8.000000e-003 -7.402083e-003
         vertex 4.755650e-002 -8.000000e-003 -4.684500e-003
         vertex 1.341335e-002 -8.000000e-003 -7.132773e-003
      endloop
   endfacet
   facet normal 0.000000e+000 -1.000000e+000 0.000000e+000
      outer loop
         vertex 1.341335e-002 -8.000000e-003 -7.132773e-003
         vertex 4.755650e-002 -8.000000e-003 -4.684500e-003
         vertex 4.231720e-002 -8.000000e-003 -5.469198e-004
      endloop
   endfacet
   facet normal 0.000000e+000 -1.000000e+000 0.000000e+000
      outer loop
         vertex 1.341335e-002 -8.000000e-003 -7.132773e-003
         vertex 4.231720e-002 -8.000000e-003 -5.469198e-004
         vertex 1.328734e-002 -8.000000e-003 -6.662475e-003
      endloop
   endfacet
   facet normal 0.000000e+000 -1.000000e+000 0.000000e+000
      outer loop
         vertex 1.328734e-002 -8.000000e-003 -6.662475e-003
         vertex 4.231720e-002 -8.000000e-003 -5.469198e-004
         vertex 4.009734e-002 -8.000000e-003 -8.475378e-013
      endloop
   endfacet
   facet normal 0.000000e+000 -1.000000e+000 0.000000e+000
      outer loop
         vertex 1.328734e-002 -8.000000e-003 -6.662475e-003
         vertex 4.009734e-002 -8.000000e-003 -8.475378e-013
         vertex 1.294305e-002 -8.000000e-003 -6.318193e-003
      endloop
   endfacet
   facet normal 0.000000e+000 -1.000000e+000 0.000000e+000
      outer loop
         vertex 1.294305e-002 -8.000000e-003 -6.318193e-003
         vertex 4.009734e-002 -8.000000e-003 -8.475378e-013
         vertex 1.616965e-002 -8.000000e-003 -8.475378e-013
      endloop
   endfacet
   facet normal 0.000000e+000 -1.000000e+000 0.000000e+000
      outer loop
         vertex 1.294305e-002 -8.000000e-003 -6.318193e-003
         vertex 1.616965e-002 -8.000000e-003 -8.475378e-013
         vertex 1.374860e-002 -8.000000e-003 -7.274020e-004
      endloop
   endfacet
   facet normal 0.000000e+000 -1.000000e+000 0.000000e+000
      outer loop
         vertex 1.000000e-002 -8.000000e-003 -1.756241e-002
         vertex 1.377968e-002 -8.000000e-003 -1.023419e-002
         vertex 1.247276e-002 -8.000000e-003 -8.073369e-003
      endloop
   endfacet
   facet normal 0.000000e+000 -1.000000e+000 0.000000e+000
      outer loop
         vertex 1.247276e-002 -8.000000e-003 -8.073369e-003
         vertex 1.377968e-002 -8.000000e-003 -1.023419e-002
         vertex 1.366371e-002 -8.000000e-003 -9.801391e-003
      endloop
   endfacet
   facet normal 0.000000e+000 -1.000000e+000 0.000000e+000
      outer loop
         vertex 1.247276e-002 -8.000000e-003 -8.073369e-003
         vertex 1.366371e-002 -8.000000e-003 -9.801391e-003
         vertex 1.294305e-002 -8.000000e-003 -7.947353e-003
      endloop
   endfacet
   facet normal 0.000000e+000 -1.000000e+000 0.000000e+000
      outer loop
         vertex 1.294305e-002 -8.000000e-003 -7.947353e-003
         vertex 1.366371e-002 -8.000000e-003 -9.801391e-003
         vertex 1.377968e-002 -8.000000e-003 -9.368593e-003
      endloop
   endfacet
   facet normal 0.000000e+000 -1.000000e+000 0.000000e+000
      outer loop
         vertex 1.294305e-002 -8.000000e-003 -7.947353e-003
         vertex 1.377968e-002 -8.000000e-003 -9.368593e-003
         vertex 1.328734e-002 -8.000000e-003 -7.603071e-003
      endloop
   endfacet
   facet normal 0.000000e+000 -1.000000e+000 0.000000e+000
      outer loop
         vertex 1.328734e-002 -8.000000e-003 -7.603071e-003
         vertex 1.377968e-002 -8.000000e-003 -9.368593e-003
         vertex 1.409651e-002 -8.000000e-003 -9.051763e-003
      endloop
   endfacet
   facet normal 0.000000e+000 -1.000000e+000 0.000000e+000
      outer loop
         vertex 1.328734e-002 -8.000000e-003 -7.603071e-003
         vertex 1.409651e-002 -8.000000e-003 -9.051763e-003
         vertex 1.341335e-002 -8.000000e-003 -7.132773e-003
      endloop
   endfacet
   facet normal 0.000000e+000 -1.000000e+000 0.000000e+000
      outer loop
         vertex 1.539490e-002 -8.000000e-003 -9.801391e-003
         vertex 1.527893e-002 -8.000000e-003 -1.023419e-002
         vertex 3.837547e-002 -8.000000e-003 -1.756241e-002
      endloop
   endfacet
   facet normal 0.000000e+000 -1.000000e+000 0.000000e+000
      outer loop
         vertex 3.837547e-002 -8.000000e-003 -1.756241e-002
         vertex 1.527893e-002 -8.000000e-003 -1.023419e-002
         vertex 1.496210e-002 -8.000000e-003 -1.055102e-002
      endloop
   endfacet
   facet normal 0.000000e+000 -1.000000e+000 0.000000e+000
      outer loop
         vertex 3.837547e-002 -8.000000e-003 -1.756241e-002
         vertex 1.496210e-002 -8.000000e-003 -1.055102e-002
         vertex 1.000000e-002 -8.000000e-003 -1.756241e-002
      endloop
   endfacet
   facet normal 0.000000e+000 -1.000000e+000 0.000000e+000
      outer loop
         vertex 1.000000e-002 -8.000000e-003 -1.756241e-002
         vertex 1.496210e-002 -8.000000e-003 -1.055102e-002
         vertex 1.452930e-002 -8.000000e-003 -1.066699e-002
      endloop
   endfacet
   facet normal 0.000000e+000 -1.000000e+000 0.000000e+000
      outer loop
         vertex 1.000000e-002 -8.000000e-003 -1.756241e-002
         vertex 1.452930e-002 -8.000000e-003 -1.066699e-002
         vertex 1.409651e-002 -8.000000e-003 -1.055102e-002
      endloop
   endfacet
   facet normal 0.000000e+000 -1.000000e+000 0.000000e+000
      outer loop
         vertex 3.837547e-002 -8.000000e-003 -1.756241e-002
         vertex 4.383513e-002 -8.000000e-003 -1.592207e-002
         vertex 1.539490e-002 -8.000000e-003 -9.801391e-003
      endloop
   endfacet
   facet normal 0.000000e+000 -1.000000e+000 0.000000e+000
      outer loop
         vertex 1.539490e-002 -8.000000e-003 -9.801391e-003
         vertex 4.383513e-002 -8.000000e-003 -1.592207e-002
         vertex 4.897650e-002 -8.000000e-003 -9.042426e-003
      endloop
   endfacet
   facet normal 0.000000e+000 -1.000000e+000 0.000000e+000
      outer loop
         vertex 1.539490e-002 -8.000000e-003 -9.801391e-003
         vertex 4.897650e-002 -8.000000e-003 -9.042426e-003
         vertex 1.527893e-002 -8.000000e-003 -9.368593e-003
      endloop
   endfacet
   facet normal 0.000000e+000 -1.000000e+000 0.000000e+000
      outer loop
         vertex 1.527893e-002 -8.000000e-003 -9.368593e-003
         vertex 4.897650e-002 -8.000000e-003 -9.042426e-003
         vertex 4.880512e-002 -8.000000e-003 -7.402083e-003
      endloop
   endfacet
   facet normal 0.000000e+000 -1.000000e+000 0.000000e+000
      outer loop
         vertex 1.527893e-002 -8.000000e-003 -9.368593e-003
         vertex 4.880512e-002 -8.000000e-003 -7.402083e-003
         vertex 1.496210e-002 -8.000000e-003 -9.051763e-003
      endloop
   endfacet
   facet normal 0.000000e+000 -1.000000e+000 0.000000e+000
      outer loop
         vertex 1.496210e-002 -8.000000e-003 -9.051763e-003
         vertex 4.880512e-002 -8.000000e-003 -7.402083e-003
         vertex 1.341335e-002 -8.000000e-003 -7.132773e-003
      endloop
   endfacet
   facet normal 0.000000e+000 -1.000000e+000 0.000000e+000
      outer loop
         vertex 1.496210e-002 -8.000000e-003 -9.051763e-003
         vertex 1.341335e-002 -8.000000e-003 -7.132773e-003
         vertex 1.452930e-002 -8.000000e-003 -8.935795e-003
      endloop
   endfacet
   facet normal 0.000000e+000 -1.000000e+000 0.000000e+000
      outer loop
         vertex 1.452930e-002 -8.000000e-003 -8.935795e-003
         vertex 1.341335e-002 -8.000000e-003 -7.132773e-003
         vertex 1.409651e-002 -8.000000e-003 -9.051763e-003
      endloop
   endfacet
   facet normal 0.000000e+000 1.000000e+000 0.000000e+000
      outer loop
         vertex 1.341335e-002 8.000000e-003 -7.132773e-003
         vertex 1.328734e-002 8.000000e-003 -6.662475e-003
         vertex 1.374860e-002 8.000000e-003 -7.274020e-004
      endloop
   endfacet
   facet normal 0.000000e+000 1.000000e+000 0.000000e+000
      outer loop
         vertex 1.374860e-002 8.000000e-003 -7.274020e-004
         vertex 1.328734e-002 8.000000e-003 -6.662475e-003
         vertex 1.294305e-002 8.000000e-003 -6.318193e-003
      endloop
   endfacet
   facet normal 0.000000e+000 1.000000e+000 0.000000e+000
      outer loop
         vertex 1.374860e-002 8.000000e-003 -7.274020e-004
         vertex 1.294305e-002 8.000000e-003 -6.318193e-003
         vertex 1.196791e-002 8.000000e-003 -2.174210e-003
      endloop
   endfacet
   facet normal 0.000000e+000 1.000000e+000 0.000000e+000
      outer loop
         vertex 1.196791e-002 8.000000e-003 -2.174210e-003
         vertex 1.294305e-002 8.000000e-003 -6.318193e-003
         vertex 1.247276e-002 8.000000e-003 -6.192177e-003
      endloop
   endfacet
   facet normal 0.000000e+000 1.000000e+000 0.000000e+000
      outer loop
         vertex 1.196791e-002 8.000000e-003 -2.174210e-003
         vertex 1.247276e-002 8.000000e-003 -6.192177e-003
         vertex 1.058758e-002 8.000000e-003 -4.047949e-003
      endloop
   endfacet
   facet normal 0.000000e+000 1.000000e+000 0.000000e+000
      outer loop
         vertex 1.058758e-002 8.000000e-003 -4.047949e-003
         vertex 1.247276e-002 8.000000e-003 -6.192177e-003
         vertex 1.200246e-002 8.000000e-003 -6.318193e-003
      endloop
   endfacet
   facet normal 0.000000e+000 1.000000e+000 0.000000e+000
      outer loop
         vertex 1.058758e-002 8.000000e-003 -4.047949e-003
         vertex 1.200246e-002 8.000000e-003 -6.318193e-003
         vertex 1.000000e-002 8.000000e-003 -6.153464e-003
      endloop
   endfacet
   facet normal 0.000000e+000 1.000000e+000 0.000000e+000
      outer loop
         vertex 1.200246e-002 8.000000e-003 -6.318193e-003
         vertex 1.165818e-002 8.000000e-003 -6.662475e-003
         vertex 1.000000e-002 8.000000e-003 -6.153464e-003
      endloop
   endfacet
   facet normal 0.000000e+000 1.000000e+000 0.000000e+000
      outer loop
         vertex 1.000000e-002 8.000000e-003 -6.153464e-003
         vertex 1.165818e-002 8.000000e-003 -6.662475e-003
         vertex 1.153216e-002 8.000000e-003 -7.132773e-003
      endloop
   endfacet
   facet normal 0.000000e+000 1.000000e+000 0.000000e+000
      outer loop
         vertex 1.000000e-002 8.000000e-003 -6.153464e-003
         vertex 1.153216e-002 8.000000e-003 -7.132773e-003
         vertex 1.165818e-002 8.000000e-003 -7.603071e-003
      endloop
   endfacet
   facet normal 0.000000e+000 1.000000e+000 0.000000e+000
      outer loop
         vertex 1.452930e-002 8.000000e-003 -8.935795e-003
         vertex 1.409651e-002 8.000000e-003 -9.051763e-003
         vertex 1.328734e-002 8.000000e-003 -7.603071e-003
      endloop
   endfacet
   facet normal 0.000000e+000 1.000000e+000 0.000000e+000
      outer loop
         vertex 4.880512e-002 8.000000e-003 -7.402083e-003
         vertex 4.897650e-002 8.000000e-003 -9.042426e-003
         vertex 1.539490e-002 8.000000e-003 -9.801391e-003
      endloop
   endfacet
   facet normal 0.000000e+000 1.000000e+000 0.000000e+000
      outer loop
         vertex 1.328734e-002 8.000000e-003 -7.603071e-003
         vertex 1.409651e-002 8.000000e-003 -9.051763e-003
         vertex 1.294305e-002 8.000000e-003 -7.947353e-003
      endloop
   endfacet
   facet normal 0.000000e+000 1.000000e+000 0.000000e+000
      outer loop
         vertex 1.294305e-002 8.000000e-003 -7.947353e-003
         vertex 1.409651e-002 8.000000e-003 -9.051763e-003
         vertex 1.377968e-002 8.000000e-003 -9.368593e-003
      endloop
   endfacet
   facet normal 0.000000e+000 1.000000e+000 0.000000e+000
      outer loop
         vertex 1.294305e-002 8.000000e-003 -7.947353e-003
         vertex 1.377968e-002 8.000000e-003 -9.368593e-003
         vertex 1.247276e-002 8.000000e-003 -8.073369e-003
      endloop
   endfacet
   facet normal 0.000000e+000 1.000000e+000 0.000000e+000
      outer loop
         vertex 1.247276e-002 8.000000e-003 -8.073369e-003
         vertex 1.377968e-002 8.000000e-003 -9.368593e-003
         vertex 1.366371e-002 8.000000e-003 -9.801391e-003
      endloop
   endfacet
   facet normal 0.000000e+000 1.000000e+000 0.000000e+000
      outer loop
         vertex 1.247276e-002 8.000000e-003 -8.073369e-003
         vertex 1.366371e-002 8.000000e-003 -9.801391e-003
         vertex 1.200246e-002 8.000000e-003 -7.947353e-003
      endloop
   endfacet
   facet normal 0.000000e+000 1.000000e+000 0.000000e+000
      outer loop
         vertex 1.165818e-002 8.000000e-003 -7.603071e-003
         vertex 1.200246e-002 8.000000e-003 -7.947353e-003
         vertex 1.000000e-002 8.000000e-003 -6.153464e-003
      endloop
   endfacet
   facet normal 0.000000e+000 1.000000e+000 0.000000e+000
      outer loop
         vertex 1.000000e-002 8.000000e-003 -6.153464e-003
         vertex 1.200246e-002 8.000000e-003 -7.947353e-003
         vertex 1.366371e-002 8.000000e-003 -9.801391e-003
      endloop
   endfacet
   facet normal 0.000000e+000 1.000000e+000 0.000000e+000
      outer loop
         vertex 1.000000e-002 8.000000e-003 -6.153464e-003
         vertex 1.366371e-002 8.000000e-003 -9.801391e-003
         vertex 1.000000e-002 8.000000e-003 -1.756241e-002
      endloop
   endfacet
   facet normal 0.000000e+000 1.000000e+000 0.000000e+000
      outer loop
         vertex 1.000000e-002 8.000000e-003 -1.756241e-002
         vertex 1.366371e-002 8.000000e-003 -9.801391e-003
         vertex 1.377968e-002 8.000000e-003 -1.023419e-002
      endloop
   endfacet
   facet normal 0.000000e+000 1.000000e+000 0.000000e+000
      outer loop
         vertex 1.377968e-002 8.000000e-003 -1.023419e-002
         vertex 1.409651e-002 8.000000e-003 -1.055102e-002
         vertex 1.000000e-002 8.000000e-003 -1.756241e-002
      endloop
   endfacet
   facet normal 0.000000e+000 1.000000e+000 0.000000e+000
      outer loop
         vertex 1.000000e-002 8.000000e-003 -1.756241e-002
         vertex 1.409651e-002 8.000000e-003 -1.055102e-002
         vertex 1.452930e-002 8.000000e-003 -1.066699e-002
      endloop
   endfacet
   facet normal 0.000000e+000 1.000000e+000 0.000000e+000
      outer loop
         vertex 1.000000e-002 8.000000e-003 -1.756241e-002
         vertex 1.452930e-002 8.000000e-003 -1.066699e-002
         vertex 3.837547e-002 8.000000e-003 -1.756241e-002
      endloop
   endfacet
   facet normal 0.000000e+000 1.000000e+000 0.000000e+000
      outer loop
         vertex 1.328734e-002 8.000000e-003 -7.603071e-003
         vertex 1.341335e-002 8.000000e-003 -7.132773e-003
         vertex 1.452930e-002 8.000000e-003 -8.935795e-003
      endloop
   endfacet
   facet normal 0.000000e+000 1.000000e+000 0.000000e+000
      outer loop
         vertex 1.452930e-002 8.000000e-003 -8.935795e-003
         vertex 1.341335e-002 8.000000e-003 -7.132773e-003
         vertex 1.374860e-002 8.000000e-003 -7.274020e-004
      endloop
   endfacet
   facet normal 0.000000e+000 1.000000e+000 0.000000e+000
      outer loop
         vertex 1.452930e-002 8.000000e-003 -8.935795e-003
         vertex 1.374860e-002 8.000000e-003 -7.274020e-004
         vertex 1.496210e-002 8.000000e-003 -9.051763e-003
      endloop
   endfacet
   facet normal 0.000000e+000 1.000000e+000 0.000000e+000
      outer loop
         vertex 1.496210e-002 8.000000e-003 -9.051763e-003
         vertex 1.374860e-002 8.000000e-003 -7.274020e-004
         vertex 1.616965e-002 8.000000e-003 -8.475378e-013
      endloop
   endfacet
   facet normal 0.000000e+000 1.000000e+000 0.000000e+000
      outer loop
         vertex 1.496210e-002 8.000000e-003 -9.051763e-003
         vertex 1.616965e-002 8.000000e-003 -8.475378e-013
         vertex 1.527893e-002 8.000000e-003 -9.368593e-003
      endloop
   endfacet
   facet normal 0.000000e+000 1.000000e+000 0.000000e+000
      outer loop
         vertex 1.527893e-002 8.000000e-003 -9.368593e-003
         vertex 1.616965e-002 8.000000e-003 -8.475378e-013
         vertex 4.009734e-002 8.000000e-003 -8.475378e-013
      endloop
   endfacet
   facet normal 0.000000e+000 1.000000e+000 0.000000e+000
      outer loop
         vertex 1.527893e-002 8.000000e-003 -9.368593e-003
         vertex 4.009734e-002 8.000000e-003 -8.475378e-013
         vertex 1.539490e-002 8.000000e-003 -9.801391e-003
      endloop
   endfacet
   facet normal 0.000000e+000 1.000000e+000 0.000000e+000
      outer loop
         vertex 1.539490e-002 8.000000e-003 -9.801391e-003
         vertex 4.009734e-002 8.000000e-003 -8.475378e-013
         vertex 4.231720e-002 8.000000e-003 -5.469198e-004
      endloop
   endfacet
   facet normal 0.000000e+000 1.000000e+000 0.000000e+000
      outer loop
         vertex 1.452930e-002 8.000000e-003 -1.066699e-002
         vertex 1.496210e-002 8.000000e-003 -1.055102e-002
         vertex 3.837547e-002 8.000000e-003 -1.756241e-002
      endloop
   endfacet
   facet normal 0.000000e+000 1.000000e+000 0.000000e+000
      outer loop
         vertex 3.837547e-002 8.000000e-003 -1.756241e-002
         vertex 1.496210e-002 8.000000e-003 -1.055102e-002
         vertex 1.527893e-002 8.000000e-003 -1.023419e-002
      endloop
   endfacet
   facet normal 0.000000e+000 1.000000e+000 0.000000e+000
      outer loop
         vertex 3.837547e-002 8.000000e-003 -1.756241e-002
         vertex 1.527893e-002 8.000000e-003 -1.023419e-002
         vertex 4.383513e-002 8.000000e-003 -1.592207e-002
      endloop
   endfacet
   facet normal 0.000000e+000 1.000000e+000 0.000000e+000
      outer loop
         vertex 4.383513e-002 8.000000e-003 -1.592207e-002
         vertex 1.527893e-002 8.000000e-003 -1.023419e-002
         vertex 1.539490e-002 8.000000e-003 -9.801391e-003
      endloop
   endfacet
   facet normal 0.000000e+000 1.000000e+000 0.000000e+000
      outer loop
         vertex 4.383513e-002 8.000000e-003 -1.592207e-002
         vertex 1.539490e-002 8.000000e-003 -9.801391e-003
         vertex 4.814408e-002 8.000000e-003 -1.242104e-002
      endloop
   endfacet
   facet normal 0.000000e+000 1.000000e+000 0.000000e+000
      outer loop
         vertex 4.814408e-002 8.000000e-003 -1.242104e-002
         vertex 1.539490e-002 8.000000e-003 -9.801391e-003
         vertex 4.897650e-002 8.000000e-003 -9.042426e-003
      endloop
   endfacet
   facet normal 0.000000e+000 1.000000e+000 0.000000e+000
      outer loop
         vertex 4.231720e-002 8.000000e-003 -5.469198e-004
         vertex 4.459409e-002 8.000000e-003 -1.624160e-003
         vertex 1.539490e-002 8.000000e-003 -9.801391e-003
      endloop
   endfacet
   facet normal 0.000000e+000 1.000000e+000 0.000000e+000
      outer loop
         vertex 1.539490e-002 8.000000e-003 -9.801391e-003
         vertex 4.459409e-002 8.000000e-003 -1.624160e-003
         vertex 4.755650e-002 8.000000e-003 -4.684500e-003
      endloop
   endfacet
   facet normal 0.000000e+000 1.000000e+000 0.000000e+000
      outer loop
         vertex 1.539490e-002 8.000000e-003 -9.801391e-003
         vertex 4.755650e-002 8.000000e-003 -4.684500e-003
         vertex 4.880512e-002 8.000000e-003 -7.402083e-003
      endloop
   endfacet
   facet normal -9.631963e-001 0.000000e+000 2.687990e-001
      outer loop
         vertex 1.000000e-002 -8.000000e-003 -6.153464e-003
         vertex 1.058758e-002 -8.000000e-003 -4.047949e-003
         vertex 1.000000e-002 8.000000e-003 -6.153464e-003
      endloop
   endfacet
   facet normal -9.631963e-001 0.000000e+000 2.687990e-001
      outer loop
         vertex 1.000000e-002 8.000000e-003 -6.153464e-003
         vertex 1.058758e-002 -8.000000e-003 -4.047949e-003
         vertex 1.058758e-002 8.000000e-003 -4.047949e-003
      endloop
   endfacet
   facet normal -1.000000e+000 -0.000000e+000 0.000000e+000
      outer loop
         vertex 1.000000e-002 -8.000000e-003 -1.756241e-002
         vertex 1.000000e-002 -8.000000e-003 -6.153464e-003
         vertex 1.000000e-002 8.000000e-003 -1.756241e-002
      endloop
   endfacet
   facet normal -1.000000e+000 -0.000000e+000 0.000000e+000
      outer loop
         vertex 1.000000e-002 8.000000e-003 -1.756241e-002
         vertex 1.000000e-002 -8.000000e-003 -6.153464e-003
         vertex 1.000000e-002 8.000000e-003 -6.153464e-003
      endloop
   endfacet
   facet normal 0.000000e+000 0.000000e+000 -1.000000e+000
      outer loop
         vertex 3.837547e-002 -8.000000e-003 -1.756241e-002
         vertex 1.000000e-002 -8.000000e-003 -1.756241e-002
         vertex 3.837547e-002 8.000000e-003 -1.756241e-002
      endloop
   endfacet
   facet normal 0.000000e+000 0.000000e+000 -1.000000e+000
      outer loop
         vertex 3.837547e-002 8.000000e-003 -1.756241e-002
         vertex 1.000000e-002 -8.000000e-003 -1.756241e-002
         vertex 1.000000e-002 8.000000e-003 -1.756241e-002
      endloop
   endfacet
   facet normal 2.877418e-001 0.000000e+000 -9.577080e-001
      outer loop
         vertex 4.383513e-002 -8.000000e-003 -1.592207e-002
         vertex 3.837547e-002 -8.000000e-003 -1.756241e-002
         vertex 4.383513e-002 8.000000e-003 -1.592207e-002
      endloop
   endfacet
   facet normal 2.877418e-001 0.000000e+000 -9.577080e-001
      outer loop
         vertex 4.383513e-002 8.000000e-003 -1.592207e-002
         vertex 3.837547e-002 -8.000000e-003 -1.756241e-002
         vertex 3.837547e-002 8.000000e-003 -1.756241e-002
      endloop
   endfacet
   facet normal 6.305926e-001 0.000000e+000 -7.761140e-001
      outer loop
         vertex 4.814408e-002 -8.000000e-003 -1.242104e-002
         vertex 4.383513e-002 -8.000000e-003 -1.592207e-002
         vertex 4.814408e-002 8.000000e-003 -1.242104e-002
      endloop
   endfacet
   facet normal 6.305926e-001 0.000000e+000 -7.761140e-001
      outer loop
         vertex 4.814408e-002 8.000000e-003 -1.242104e-002
         vertex 4.383513e-002 -8.000000e-003 -1.592207e-002
         vertex 4.383513e-002 8.000000e-003 -1.592207e-002
      endloop
   endfacet
   facet normal 9.709646e-001 0.000000e+000 -2.392232e-001
      outer loop
         vertex 4.897650e-002 -8.000000e-003 -9.042426e-003
         vertex 4.814408e-002 -8.000000e-003 -1.242104e-002
         vertex 4.897650e-002 8.000000e-003 -9.042426e-003
      endloop
   endfacet
   facet normal 9.709646e-001 0.000000e+000 -2.392232e-001
      outer loop
         vertex 4.897650e-002 8.000000e-003 -9.042426e-003
         vertex 4.814408e-002 -8.000000e-003 -1.242104e-002
         vertex 4.814408e-002 8.000000e-003 -1.242104e-002
      endloop
   endfacet
   facet normal 9.945865e-001 0.000000e+000 1.039120e-001
      outer loop
         vertex 4.880512e-002 -8.000000e-003 -7.402083e-003
         vertex 4.897650e-002 -8.000000e-003 -9.042426e-003
         vertex 4.880512e-002 8.000000e-003 -7.402083e-003
      endloop
   endfacet
   facet normal 9.945865e-001 0.000000e+000 1.039120e-001
      outer loop
         vertex 4.880512e-002 8.000000e-003 -7.402083e-003
         vertex 4.897650e-002 -8.000000e-003 -9.042426e-003
         vertex 4.897650e-002 8.000000e-003 -9.042426e-003
      endloop
   endfacet
   facet normal 9.086769e-001 0.000000e+000 4.175002e-001
      outer loop
         vertex 4.755650e-002 -8.000000e-003 -4.684500e-003
         vertex 4.880512e-002 -8.000000e-003 -7.402083e-003
         vertex 4.755650e-002 8.000000e-003 -4.684500e-003
      endloop
   endfacet
   facet normal 9.086769e-001 0.000000e+000 4.175002e-001
      outer loop
         vertex 4.755650e-002 8.000000e-003 -4.684500e-003
         vertex 4.880512e-002 -8.000000e-003 -7.402083e-003
         vertex 4.880512e-002 8.000000e-003 -7.402083e-003
      endloop
   endfacet
   facet normal 7.185094e-001 0.000000e+000 6.955172e-001
      outer loop
         vertex 4.459409e-002 -8.000000e-003 -1.624160e-003
         vertex 4.755650e-002 -8.000000e-003 -4.684500e-003
         vertex 4.459409e-002 8.000000e-003 -1.624160e-003
      endloop
   endfacet
   facet normal 7.185094e-001 0.000000e+000 6.955172e-001
      outer loop
         vertex 4.459409e-002 8.000000e-003 -1.624160e-003
         vertex 4.755650e-002 -8.000000e-003 -4.684500e-003
         vertex 4.755650e-002 8.000000e-003 -4.684500e-003
      endloop
   endfacet
   facet normal 4.276685e-001 0.000000e+000 9.039357e-001
      outer loop
         vertex 4.231720e-002 -8.000000e-003 -5.469198e-004
         vertex 4.459409e-002 -8.000000e-003 -1.624160e-003
         vertex 4.231720e-002 8.000000e-003 -5.469198e-004
      endloop
   endfacet
   facet normal 4.276685e-001 0.000000e+000 9.039357e-001
      outer loop
         vertex 4.231720e-002 8.000000e-003 -5.469198e-004
         vertex 4.459409e-002 -8.000000e-003 -1.624160e-003
         vertex 4.459409e-002 8.000000e-003 -1.624160e-003
      endloop
   endfacet
   facet normal 2.392232e-001 0.000000e+000 9.709646e-001
      outer loop
         vertex 4.009734e-002 -8.000000e-003 -8.475378e-013
         vertex 4.231720e-002 -8.000000e-003 -5.469198e-004
         vertex 4.009734e-002 8.000000e-003 -8.475378e-013
      endloop
   endfacet
   facet normal 2.392232e-001 0.000000e+000 9.709646e-001
      outer loop
         vertex 4.009734e-002 8.000000e-003 -8.475378e-013
         vertex 4.231720e-002 -8.000000e-003 -5.469198e-004
         vertex 4.231720e-002 8.000000e-003 -5.469198e-004
      endloop
   endfacet
   facet normal 0.000000e+000 0.000000e+000 1.000000e+000
      outer loop
         vertex 2.877960e-002 -5.437607e-003 -8.475378e-013
         vertex 2.877960e-002 -2.428638e-003 -8.475378e-013
         vertex 2.065968e-002 -2.428638e-003 -8.475378e-013
      endloop
   endfacet
   facet normal 0.000000e+000 0.000000e+000 1.000000e+000
      outer loop
         vertex 3.116648e-002 5.245554e-003 -8.475378e-013
         vertex 4.009734e-002 8.000000e-003 -8.475378e-013
         vertex 2.877960e-002 5.245554e-003 -8.475378e-013
      endloop
   endfacet
   facet normal 0.000000e+000 0.000000e+000 1.000000e+000
      outer loop
         vertex 2.877960e-002 5.245554e-003 -8.475378e-013
         vertex 4.009734e-002 8.000000e-003 -8.475378e-013
         vertex 1.616965e-002 8.000000e-003 -8.475378e-013
      endloop
   endfacet
   facet normal 0.000000e+000 0.000000e+000 1.000000e+000
      outer loop
         vertex 2.877960e-002 5.245554e-003 -8.475378e-013
         vertex 1.616965e-002 8.000000e-003 -8.475378e-013
         vertex 2.877960e-002 1.581334e-003 -8.475378e-013
      endloop
   endfacet
   facet normal 0.000000e+000 0.000000e+000 1.000000e+000
      outer loop
         vertex 3.116648e-002 5.245554e-003 -8.475378e-013
         vertex 3.116648e-002 1.581334e-003 -8.475378e-013
         vertex 4.009734e-002 8.000000e-003 -8.475378e-013
      endloop
   endfacet
   facet normal 0.000000e+000 0.000000e+000 1.000000e+000
      outer loop
         vertex 4.009734e-002 8.000000e-003 -8.475378e-013
         vertex 3.116648e-002 1.581334e-003 -8.475378e-013
         vertex 3.922703e-002 1.581334e-003 -8.475378e-013
      endloop
   endfacet
   facet normal 0.000000e+000 0.000000e+000 1.000000e+000
      outer loop
         vertex 4.009734e-002 8.000000e-003 -8.475378e-013
         vertex 3.922703e-002 1.581334e-003 -8.475378e-013
         vertex 4.009734e-002 -8.000000e-003 -8.475378e-013
      endloop
   endfacet
   facet normal 0.000000e+000 0.000000e+000 1.000000e+000
      outer loop
         vertex 4.009734e-002 -8.000000e-003 -8.475378e-013
         vertex 3.922703e-002 1.581334e-003 -8.475378e-013
         vertex 3.922703e-002 -2.428638e-003 -8.475378e-013
      endloop
   endfacet
   facet normal 0.000000e+000 0.000000e+000 1.000000e+000
      outer loop
         vertex 4.009734e-002 -8.000000e-003 -8.475378e-013
         vertex 3.922703e-002 -2.428638e-003 -8.475378e-013
         vertex 3.116648e-002 -2.428638e-003 -8.475378e-013
      endloop
   endfacet
   facet normal 0.000000e+000 0.000000e+000 1.000000e+000
      outer loop
         vertex 3.116648e-002 -2.428638e-003 -8.475378e-013
         vertex 3.116648e-002 -5.437607e-003 -8.475378e-013
         vertex 4.009734e-002 -8.000000e-003 -8.475378e-013
      endloop
   endfacet
   facet normal 0.000000e+000 0.000000e+000 1.000000e+000
      outer loop
         vertex 4.009734e-002 -8.000000e-003 -8.475378e-013
         vertex 3.116648e-002 -5.437607e-003 -8.475378e-013
         vertex 2.877960e-002 -5.437607e-003 -8.475378e-013
      endloop
   endfacet
   facet normal 0.000000e+000 0.000000e+000 1.000000e+000
      outer loop
         vertex 4.009734e-002 -8.000000e-003 -8.475378e-013
         vertex 2.877960e-002 -5.437607e-003 -8.475378e-013
         vertex 1.616965e-002 -8.000000e-003 -8.475378e-013
      endloop
   endfacet
   facet normal 0.000000e+000 0.000000e+000 1.000000e+000
      outer loop
         vertex 1.616965e-002 -8.000000e-003 -8.475378e-013
         vertex 2.877960e-002 -5.437607e-003 -8.475378e-013
         vertex 2.065968e-002 -2.428638e-003 -8.475378e-013
      endloop
   endfacet
   facet normal 0.000000e+000 0.000000e+000 1.000000e+000
      outer loop
         vertex 1.616965e-002 -8.000000e-003 -8.475378e-013
         vertex 2.065968e-002 -2.428638e-003 -8.475378e-013
         vertex 1.616965e-002 8.000000e-003 -8.475378e-013
      endloop
   endfacet
   facet normal 0.000000e+000 0.000000e+000 1.000000e+000
      outer loop
         vertex 1.616965e-002 8.000000e-003 -8.475378e-013
         vertex 2.065968e-002 -2.428638e-003 -8.475378e-013
         vertex 2.065968e-002 1.581334e-003 -8.475378e-013
      endloop
   endfacet
   facet normal 0.000000e+000 0.000000e+000 1.000000e+000
      outer loop
         vertex 1.616965e-002 8.000000e-003 -8.475378e-013
         vertex 2.065968e-002 1.581334e-003 -8.475378e-013
         vertex 2.877960e-002 1.581334e-003 -8.475378e-013
      endloop
   endfacet
   facet normal -2.877418e-001 0.000000e+000 9.577080e-001
      outer loop
         vertex 1.374860e-002 -8.000000e-003 -7.274020e-004
         vertex 1.616965e-002 -8.000000e-003 -8.475378e-013
         vertex 1.374860e-002 8.000000e-003 -7.274020e-004
      endloop
   endfacet
   facet normal -2.877418e-001 0.000000e+000 9.577080e-001
      outer loop
         vertex 1.374860e-002 8.000000e-003 -7.274020e-004
         vertex 1.616965e-002 -8.000000e-003 -8.475378e-013
         vertex 1.616965e-002 8.000000e-003 -8.475378e-013
      endloop
   endfacet
   facet normal -6.305926e-001 0.000000e+000 7.761140e-001
      outer loop
         vertex 1.196791e-002 -8.000000e-003 -2.174210e-003
         vertex 1.374860e-002 -8.000000e-003 -7.274020e-004
         vertex 1.196791e-002 8.000000e-003 -2.174210e-003
      endloop
   endfacet
   facet normal -6.305926e-001 0.000000e+000 7.761140e-001
      outer loop
         vertex 1.196791e-002 8.000000e-003 -2.174210e-003
         vertex 1.374860e-002 -8.000000e-003 -7.274020e-004
         vertex 1.374860e-002 8.000000e-003 -7.274020e-004
      endloop
   endfacet
   facet normal -8.051236e-001 0.000000e+000 5.931070e-001
      outer loop
         vertex 1.058758e-002 -8.000000e-003 -4.047949e-003
         vertex 1.196791e-002 -8.000000e-003 -2.174210e-003
         vertex 1.058758e-002 8.000000e-003 -4.047949e-003
      endloop
   endfacet
   facet normal -8.051236e-001 0.000000e+000 5.931070e-001
      outer loop
         vertex 1.058758e-002 8.000000e-003 -4.047949e-003
         vertex 1.196791e-002 -8.000000e-003 -2.174210e-003
         vertex 1.196791e-002 8.000000e-003 -2.174210e-003
      endloop
   endfacet
   facet normal -1.718619e-001 -0.000000e+000 -9.851211e-001
      outer loop
         vertex 1.247276e-002 -8.000000e-003 -6.192177e-003
         vertex 1.247276e-002 8.000000e-003 -6.192177e-003
         vertex 1.294305e-002 -8.000000e-003 -6.318193e-003
      endloop
   endfacet
   facet normal -3.437238e-001 -0.000000e+000 -9.390708e-001
      outer loop
         vertex 1.294305e-002 -8.000000e-003 -6.318193e-003
         vertex 1.247276e-002 8.000000e-003 -6.192177e-003
         vertex 1.294305e-002 8.000000e-003 -6.318193e-003
      endloop
   endfacet
   facet normal -6.413973e-001 -0.000000e+000 -7.672089e-001
      outer loop
         vertex 1.294305e-002 -8.000000e-003 -6.318193e-003
         vertex 1.294305e-002 8.000000e-003 -6.318193e-003
         vertex 1.328734e-002 -8.000000e-003 -6.662475e-003
      endloop
   endfacet
   facet normal -7.672089e-001 -0.000000e+000 -6.413973e-001
      outer loop
         vertex 1.328734e-002 -8.000000e-003 -6.662475e-003
         vertex 1.294305e-002 8.000000e-003 -6.318193e-003
         vertex 1.328734e-002 8.000000e-003 -6.662475e-003
      endloop
   endfacet
   facet normal -9.390708e-001 -0.000000e+000 -3.437238e-001
      outer loop
         vertex 1.328734e-002 -8.000000e-003 -6.662475e-003
         vertex 1.328734e-002 8.000000e-003 -6.662475e-003
         vertex 1.341335e-002 -8.000000e-003 -7.132773e-003
      endloop
   endfacet
   facet normal -9.851211e-001 -0.000000e+000 -1.718619e-001
      outer loop
         vertex 1.341335e-002 -8.000000e-003 -7.132773e-003
         vertex 1.328734e-002 8.000000e-003 -6.662475e-003
         vertex 1.341335e-002 8.000000e-003 -7.132773e-003
      endloop
   endfacet
   facet normal -9.851211e-001 0.000000e+000 1.718619e-001
      outer loop
         vertex 1.341335e-002 -8.000000e-003 -7.132773e-003
         vertex 1.341335e-002 8.000000e-003 -7.132773e-003
         vertex 1.328734e-002 -8.000000e-003 -7.603071e-003
      endloop
   endfacet
   facet normal -9.390708e-001 0.000000e+000 3.437238e-001
      outer loop
         vertex 1.328734e-002 -8.000000e-003 -7.603071e-003
         vertex 1.341335e-002 8.000000e-003 -7.132773e-003
         vertex 1.328734e-002 8.000000e-003 -7.603071e-003
      endloop
   endfacet
   facet normal -7.672089e-001 0.000000e+000 6.413973e-001
      outer loop
         vertex 1.328734e-002 -8.000000e-003 -7.603071e-003
         vertex 1.328734e-002 8.000000e-003 -7.603071e-003
         vertex 1.294305e-002 -8.000000e-003 -7.947353e-003
      endloop
   endfacet
   facet normal -6.413973e-001 0.000000e+000 7.672089e-001
      outer loop
         vertex 1.294305e-002 -8.000000e-003 -7.947353e-003
         vertex 1.328734e-002 8.000000e-003 -7.603071e-003
         vertex 1.294305e-002 8.000000e-003 -7.947353e-003
      endloop
   endfacet
   facet normal -3.437238e-001 0.000000e+000 9.390708e-001
      outer loop
         vertex 1.294305e-002 -8.000000e-003 -7.947353e-003
         vertex 1.294305e-002 8.000000e-003 -7.947353e-003
         vertex 1.247276e-002 -8.000000e-003 -8.073369e-003
      endloop
   endfacet
   facet normal -1.718619e-001 0.000000e+000 9.851211e-001
      outer loop
         vertex 1.247276e-002 -8.000000e-003 -8.073369e-003
         vertex 1.294305e-002 8.000000e-003 -7.947353e-003
         vertex 1.247276e-002 8.000000e-003 -8.073369e-003
      endloop
   endfacet
   facet normal 1.718619e-001 0.000000e+000 9.851211e-001
      outer loop
         vertex 1.247276e-002 -8.000000e-003 -8.073369e-003
         vertex 1.247276e-002 8.000000e-003 -8.073369e-003
         vertex 1.200246e-002 -8.000000e-003 -7.947353e-003
      endloop
   endfacet
   facet normal 3.437238e-001 0.000000e+000 9.390708e-001
      outer loop
         vertex 1.200246e-002 -8.000000e-003 -7.947353e-003
         vertex 1.247276e-002 8.000000e-003 -8.073369e-003
         vertex 1.200246e-002 8.000000e-003 -7.947353e-003
      endloop
   endfacet
   facet normal 6.413973e-001 0.000000e+000 7.672089e-001
      outer loop
         vertex 1.200246e-002 -8.000000e-003 -7.947353e-003
         vertex 1.200246e-002 8.000000e-003 -7.947353e-003
         vertex 1.165818e-002 -8.000000e-003 -7.603071e-003
      endloop
   endfacet
   facet normal 7.672089e-001 0.000000e+000 6.413973e-001
      outer loop
         vertex 1.165818e-002 -8.000000e-003 -7.603071e-003
         vertex 1.200246e-002 8.000000e-003 -7.947353e-003
         vertex 1.165818e-002 8.000000e-003 -7.603071e-003
      endloop
   endfacet
   facet normal 9.390708e-001 0.000000e+000 3.437238e-001
      outer loop
         vertex 1.165818e-002 -8.000000e-003 -7.603071e-003
         vertex 1.165818e-002 8.000000e-003 -7.603071e-003
         vertex 1.153216e-002 -8.000000e-003 -7.132773e-003
      endloop
   endfacet
   facet normal 9.851211e-001 0.000000e+000 1.718619e-001
      outer loop
         vertex 1.153216e-002 -8.000000e-003 -7.132773e-003
         vertex 1.165818e-002 8.000000e-003 -7.603071e-003
         vertex 1.153216e-002 8.000000e-003 -7.132773e-003
      endloop
   endfacet
   facet normal 9.851211e-001 0.000000e+000 -1.718619e-001
      outer loop
         vertex 1.153216e-002 -8.000000e-003 -7.132773e-003
         vertex 1.153216e-002 8.000000e-003 -7.132773e-003
         vertex 1.165818e-002 -8.000000e-003 -6.662475e-003
      endloop
   endfacet
   facet normal 9.390708e-001 0.000000e+000 -3.437238e-001
      outer loop
         vertex 1.165818e-002 -8.000000e-003 -6.662475e-003
         vertex 1.153216e-002 8.000000e-003 -7.132773e-003
         vertex 1.165818e-002 8.000000e-003 -6.662475e-003
      endloop
   endfacet
   facet normal 7.672089e-001 0.000000e+000 -6.413973e-001
      outer loop
         vertex 1.165818e-002 -8.000000e-003 -6.662475e-003
         vertex 1.165818e-002 8.000000e-003 -6.662475e-003
         vertex 1.200246e-002 -8.000000e-003 -6.318193e-003
      endloop
   endfacet
   facet normal 6.413973e-001 0.000000e+000 -7.672089e-001
      outer loop
         vertex 1.200246e-002 -8.000000e-003 -6.318193e-003
         vertex 1.165818e-002 8.000000e-003 -6.662475e-003
         vertex 1.200246e-002 8.000000e-003 -6.318193e-003
      endloop
   endfacet
   facet normal 3.437238e-001 0.000000e+000 -9.390708e-001
      outer loop
         vertex 1.200246e-002 -8.000000e-003 -6.318193e-003
         vertex 1.200246e-002 8.000000e-003 -6.318193e-003
         vertex 1.247276e-002 -8.000000e-003 -6.192177e-003
      endloop
   endfacet
   facet normal 1.718619e-001 0.000000e+000 -9.851211e-001
      outer loop
         vertex 1.247276e-002 -8.000000e-003 -6.192177e-003
         vertex 1.200246e-002 8.000000e-003 -6.318193e-003
         vertex 1.247276e-002 8.000000e-003 -6.192177e-003
      endloop
   endfacet
   facet normal -1.718619e-001 -0.000000e+000 -9.851211e-001
      outer loop
         vertex 1.452930e-002 -8.000000e-003 -8.935795e-003
         vertex 1.452930e-002 8.000000e-003 -8.935795e-003
         vertex 1.496210e-002 -8.000000e-003 -9.051763e-003
      endloop
   endfacet
   facet normal -3.437238e-001 -0.000000e+000 -9.390708e-001
      outer loop
         vertex 1.496210e-002 -8.000000e-003 -9.051763e-003
         vertex 1.452930e-002 8.000000e-003 -8.935795e-003
         vertex 1.496210e-002 8.000000e-003 -9.051763e-003
      endloop
   endfacet
   facet normal -6.413973e-001 -0.000000e+000 -7.672089e-001
      outer loop
         vertex 1.496210e-002 -8.000000e-003 -9.051763e-003
         vertex 1.496210e-002 8.000000e-003 -9.051763e-003
         vertex 1.527893e-002 -8.000000e-003 -9.368593e-003
      endloop
   endfacet
   facet normal -7.672089e-001 -0.000000e+000 -6.413973e-001
      outer loop
         vertex 1.527893e-002 -8.000000e-003 -9.368593e-003
         vertex 1.496210e-002 8.000000e-003 -9.051763e-003
         vertex 1.527893e-002 8.000000e-003 -9.368593e-003
      endloop
   endfacet
   facet normal -9.390708e-001 -0.000000e+000 -3.437238e-001
      outer loop
         vertex 1.527893e-002 -8.000000e-003 -9.368593e-003
         vertex 1.527893e-002 8.000000e-003 -9.368593e-003
         vertex 1.539490e-002 -8.000000e-003 -9.801391e-003
      endloop
   endfacet
   facet normal -9.851211e-001 -0.000000e+000 -1.718619e-001
      outer loop
         vertex 1.539490e-002 -8.000000e-003 -9.801391e-003
         vertex 1.527893e-002 8.000000e-003 -9.368593e-003
         vertex 1.539490e-002 8.000000e-003 -9.801391e-003
      endloop
   endfacet
   facet normal -9.851211e-001 0.000000e+000 1.718619e-001
      outer loop
         vertex 1.539490e-002 -8.000000e-003 -9.801391e-003
         vertex 1.539490e-002 8.000000e-003 -9.801391e-003
         vertex 1.527893e-002 -8.000000e-003 -1.023419e-002
      endloop
   endfacet
   facet normal -9.390708e-001 0.000000e+000 3.437238e-001
      outer loop
         vertex 1.527893e-002 -8.000000e-003 -1.023419e-002
         vertex 1.539490e-002 8.000000e-003 -9.801391e-003
         vertex 1.527893e-002 8.000000e-003 -1.023419e-002
      endloop
   endfacet
   facet normal -7.672089e-001 0.000000e+000 6.413973e-001
      outer loop
         vertex 1.527893e-002 -8.000000e-003 -1.023419e-002
         vertex 1.527893e-002 8.000000e-003 -1.023419e-002
         vertex 1.496210e-002 -8.000000e-003 -1.055102e-002
      endloop
   endfacet
   facet normal -6.413973e-001 0.000000e+000 7.672089e-001
      outer loop
         vertex 1.496210e-002 -8.000000e-003 -1.055102e-002
         vertex 1.527893e-002 8.000000e-003 -1.023419e-002
         vertex 1.496210e-002 8.000000e-003 -1.055102e-002
      endloop
   endfacet
   facet normal -3.437238e-001 0.000000e+000 9.390708e-001
      outer loop
         vertex 1.496210e-002 -8.000000e-003 -1.055102e-002
         vertex 1.496210e-002 8.000000e-003 -1.055102e-002
         vertex 1.452930e-002 -8.000000e-003 -1.066699e-002
      endloop
   endfacet
   facet normal -1.718619e-001 0.000000e+000 9.851211e-001
      outer loop
         vertex 1.452930e-002 -8.000000e-003 -1.066699e-002
         vertex 1.496210e-002 8.000000e-003 -1.055102e-002
         vertex 1.452930e-002 8.000000e-003 -1.066699e-002
      endloop
   endfacet
   facet normal 1.718619e-001 0.000000e+000 9.851211e-001
      outer loop
         vertex 1.452930e-002 -8.000000e-003 -1.066699e-002
         vertex 1.452930e-002 8.000000e-003 -1.066699e-002
         vertex 1.409651e-002 -8.000000e-003 -1.055102e-002
      endloop
   endfacet
   facet normal 3.437238e-001 0.000000e+000 9.390708e-001
      outer loop
         vertex 1.409651e-002 -8.000000e-003 -1.055102e-002
         vertex 1.452930e-002 8.000000e-003 -1.066699e-002
         vertex 1.409651e-002 8.000000e-003 -1.055102e-002
      endloop
   endfacet
   facet normal 6.413973e-001 0.000000e+000 7.672089e-001
      outer loop
         vertex 1.409651e-002 -8.000000e-003 -1.055102e-002
         vertex 1.409651e-002 8.000000e-003 -1.055102e-002
         vertex 1.377968e-002 -8.000000e-003 -1.023419e-002
      endloop
   endfacet
   facet normal 7.672089e-001 0.000000e+000 6.413973e-001
      outer loop
         vertex 1.377968e-002 -8.000000e-003 -1.023419e-002
         vertex 1.409651e-002 8.000000e-003 -1.055102e-002
         vertex 1.377968e-002 8.000000e-003 -1.023419e-002
      endloop
   endfacet
   facet normal 9.390708e-001 0.000000e+000 3.437238e-001
      outer loop
         vertex 1.377968e-002 -8.000000e-003 -1.023419e-002
         vertex 1.377968e-002 8.000000e-003 -1.023419e-002
         vertex 1.366371e-002 -8.000000e-003 -9.801391e-003
      endloop
   endfacet
   facet normal 9.851211e-001 0.000000e+000 1.718619e-001
      outer loop
         vertex 1.366371e-002 -8.000000e-003 -9.801391e-003
         vertex 1.377968e-002 8.000000e-003 -1.023419e-002
         vertex 1.366371e-002 8.000000e-003 -9.801391e-003
      endloop
   endfacet
   facet normal 9.851211e-001 0.000000e+000 -1.718619e-001
      outer loop
         vertex 1.366371e-002 -8.000000e-003 -9.801391e-003
         vertex 1.366371e-002 8.000000e-003 -9.801391e-003
         vertex 1.377968e-002 -8.000000e-003 -9.368593e-003
      endloop
   endfacet
   facet normal 9.390708e-001 0.000000e+000 -3.437238e-001
      outer loop
         vertex 1.377968e-002 -8.000000e-003 -9.368593e-003
         vertex 1.366371e-002 8.000000e-003 -9.801391e-003
         vertex 1.377968e-002 8.000000e-003 -9.368593e-003
      endloop
   endfacet
   facet normal 7.672089e-001 0.000000e+000 -6.413973e-001
      outer loop
         vertex 1.377968e-002 -8.000000e-003 -9.368593e-003
         vertex 1.377968e-002 8.000000e-003 -9.368593e-003
         vertex 1.409651e-002 -8.000000e-003 -9.051763e-003
      endloop
   endfacet
   facet normal 6.413973e-001 0.000000e+000 -7.672089e-001
      outer loop
         vertex 1.409651e-002 -8.000000e-003 -9.051763e-003
         vertex 1.377968e-002 8.000000e-003 -9.368593e-003
         vertex 1.409651e-002 8.000000e-003 -9.051763e-003
      endloop
   endfacet
   facet normal 3.437238e-001 0.000000e+000 -9.390708e-001
      outer loop
         vertex 1.409651e-002 -8.000000e-003 -9.051763e-003
         vertex 1.409651e-002 8.000000e-003 -9.051763e-003
         vertex 1.452930e-002 -8.000000e-003 -8.935795e-003
      endloop
   endfacet
   facet normal 1.718619e-001 0.000000e+000 -9.851211e-001
      outer loop
         vertex 1.452930e-002 -8.000000e-003 -8.935795e-003
         vertex 1.409651e-002 8.000000e-003 -9.051763e-003
         vertex 1.452930e-002 8.000000e-003 -8.935795e-003
      endloop
   endfacet
   facet normal 1.000000e+000 0.000000e+000 0.000000e+000
      outer loop
         vertex 2.065968e-002 -2.428638e-003 -3.000000e-003
         vertex 2.065968e-002 1.581334e-003 -3.000000e-003
         vertex 2.065968e-002 -2.428638e-003 -8.475378e-013
      endloop
   endfacet
   facet normal 1.000000e+000 0.000000e+000 0.000000e+000
      outer loop
         vertex 2.065968e-002 -2.428638e-003 -8.475378e-013
         vertex 2.065968e-002 1.581334e-003 -3.000000e-003
         vertex 2.065968e-002 1.581334e-003 -8.475378e-013
      endloop
   endfacet
   facet normal 0.000000e+000 -1.000000e+000 0.000000e+000
      outer loop
         vertex 2.065968e-002 1.581334e-003 -3.000000e-003
         vertex 2.877960e-002 1.581334e-003 -3.000000e-003
         vertex 2.065968e-002 1.581334e-003 -8.475378e-013
      endloop
   endfacet
   facet normal 0.000000e+000 -1.000000e+000 0.000000e+000
      outer loop
         vertex 2.065968e-002 1.581334e-003 -8.475378e-013
         vertex 2.877960e-002 1.581334e-003 -3.000000e-003
         vertex 2.877960e-002 1.581334e-003 -8.475378e-013
      endloop
   endfacet
   facet normal 1.000000e+000 0.000000e+000 0.000000e+000
      outer loop
         vertex 2.877960e-002 1.581334e-003 -3.000000e-003
         vertex 2.877960e-002 5.245554e-003 -3.000000e-003
         vertex 2.877960e-002 1.581334e-003 -8.475378e-013
      endloop
   endfacet
   facet normal 1.000000e+000 0.000000e+000 0.000000e+000
      outer loop
         vertex 2.877960e-002 1.581334e-003 -8.475378e-013
         vertex 2.877960e-002 5.245554e-003 -3.000000e-003
         vertex 2.877960e-002 5.245554e-003 -8.475378e-013
      endloop
   endfacet
   facet normal 0.000000e+000 -1.000000e+000 0.000000e+000
      outer loop
         vertex 2.877960e-002 5.245554e-003 -3.000000e-003
         vertex 3.116648e-002 5.245554e-003 -3.000000e-003
         vertex 2.877960e-002 5.245554e-003 -8.475378e-013
      endloop
   endfacet
   facet normal 0.000000e+000 -1.000000e+000 0.000000e+000
      outer loop
         vertex 2.877960e-002 5.245554e-003 -8.475378e-013
         vertex 3.116648e-002 5.245554e-003 -3.000000e-003
         vertex 3.116648e-002 5.245554e-003 -8.475378e-013
      endloop
   endfacet
   facet normal -1.000000e+000 -0.000000e+000 0.000000e+000
      outer loop
         vertex 3.116648e-002 5.245554e-003 -3.000000e-003
         vertex 3.116648e-002 1.581334e-003 -3.000000e-003
         vertex 3.116648e-002 5.245554e-003 -8.475378e-013
      endloop
   endfacet
   facet normal -1.000000e+000 -0.000000e+000 0.000000e+000
      outer loop
         vertex 3.116648e-002 5.245554e-003 -8.475378e-013
         vertex 3.116648e-002 1.581334e-003 -3.000000e-003
         vertex 3.116648e-002 1.581334e-003 -8.475378e-013
      endloop
   endfacet
   facet normal 0.000000e+000 -1.000000e+000 0.000000e+000
      outer loop
         vertex 3.116648e-002 1.581334e-003 -3.000000e-003
         vertex 3.922703e-002 1.581334e-003 -3.000000e-003
         vertex 3.116648e-002 1.581334e-003 -8.475378e-013
      endloop
   endfacet
   facet normal 0.000000e+000 -1.000000e+000 0.000000e+000
      outer loop
         vertex 3.116648e-002 1.581334e-003 -8.475378e-013
         vertex 3.922703e-002 1.581334e-003 -3.000000e-003
         vertex 3.922703e-002 1.581334e-003 -8.475378e-013
      endloop
   endfacet
   facet normal -1.000000e+000 -0.000000e+000 0.000000e+000
      outer loop
         vertex 3.922703e-002 1.581334e-003 -3.000000e-003
         vertex 3.922703e-002 -2.428638e-003 -3.000000e-003
         vertex 3.922703e-002 1.581334e-003 -8.475378e-013
      endloop
   endfacet
   facet normal -1.000000e+000 -0.000000e+000 0.000000e+000
      outer loop
         vertex 3.922703e-002 1.581334e-003 -8.475378e-013
         vertex 3.922703e-002 -2.428638e-003 -3.000000e-003
         vertex 3.922703e-002 -2.428638e-003 -8.475378e-013
      endloop
   endfacet
   facet normal 0.000000e+000 1.000000e+000 0.000000e+000
      outer loop
         vertex 3.922703e-002 -2.428638e-003 -3.000000e-003
         vertex 3.116648e-002 -2.428638e-003 -3.000000e-003
         vertex 3.922703e-002 -2.428638e-003 -8.475378e-013
      endloop
   endfacet
   facet normal 0.000000e+000 1.000000e+000 0.000000e+000
      outer loop
         vertex 3.922703e-002 -2.428638e-003 -8.475378e-013
         vertex 3.116648e-002 -2.428638e-003 -3.000000e-003
         vertex 3.116648e-002 -2.428638e-003 -8.475378e-013
      endloop
   endfacet
   facet normal -1.000000e+000 -0.000000e+000 0.000000e+000
      outer loop
         vertex 3.116648e-002 -2.428638e-003 -3.000000e-003
         vertex 3.116648e-002 -5.437607e-003 -3.000000e-003
         vertex 3.116648e-002 -2.428638e-003 -8.475378e-013
      endloop
   endfacet
   facet normal -1.000000e+000 -0.000000e+000 0.000000e+000
      outer loop
         vertex 3.116648e-002 -2.428638e-003 -8.475378e-013
         vertex 3.116648e-002 -5.437607e-003 -3.000000e-003
         vertex 3.116648e-002 -5.437607e-003 -8.475378e-013
      endloop
   endfacet
   facet normal 0.000000e+000 1.000000e+000 0.000000e+000
      outer loop
         vertex 3.116648e-002 -5.437607e-003 -3.000000e-003
         vertex 2.877960e-002 -5.437607e-003 -3.000000e-003
         vertex 3.116648e-002 -5.437607e-003 -8.475378e-013
      endloop
   endfacet
   facet normal 0.000000e+000 1.000000e+000 0.000000e+000
      outer loop
         vertex 3.116648e-002 -5.437607e-003 -8.475378e-013
         vertex 2.877960e-002 -5.437607e-003 -3.000000e-003
         vertex 2.877960e-002 -5.437607e-003 -8.475378e-013
      endloop
   endfacet
   facet normal 1.000000e+000 0.000000e+000 0.000000e+000
      outer loop
         vertex 2.877960e-002 -5.437607e-003 -3.000000e-003
         vertex 2.877960e-002 -2.428638e-003 -3.000000e-003
         vertex 2.877960e-002 -5.437607e-003 -8.475378e-013
      endloop
   endfacet
   facet normal 1.000000e+000 0.000000e+000 0.000000e+000
      outer loop
         vertex 2.877960e-002 -5.437607e-003 -8.475378e-013
         vertex 2.877960e-002 -2.428638e-003 -3.000000e-003
         vertex 2.877960e-002 -2.428638e-003 -8.475378e-013
      endloop
   endfacet
   facet normal 0.000000e+000 1.000000e+000 0.000000e+000
      outer loop
         vertex 2.877960e-002 -2.428638e-003 -3.000000e-003
         vertex 2.065968e-002 -2.428638e-003 -3.000000e-003
         vertex 2.877960e-002 -2.428638e-003 -8.475378e-013
      endloop
   endfacet
   facet normal 0.000000e+000 1.000000e+000 0.000000e+000
      outer loop
         vertex 2.877960e-002 -2.428638e-003 -8.475378e-013
         vertex 2.065968e-002 -2.428638e-003 -3.000000e-003
         vertex 2.065968e-002 -2.428638e-003 -8.475378e-013
      endloop
   endfacet
   facet normal 0.000000e+000 0.000000e+000 1.000000e+000
      outer loop
         vertex 3.116648e-002 5.245554e-003 -3.000000e-003
         vertex 2.877960e-002 5.245554e-003 -3.000000e-003
         vertex 3.116648e-002 1.581334e-003 -3.000000e-003
      endloop
   endfacet
   facet normal 0.000000e+000 0.000000e+000 1.000000e+000
      outer loop
         vertex 3.116648e-002 1.581334e-003 -3.000000e-003
         vertex 2.877960e-002 5.245554e-003 -3.000000e-003
         vertex 2.877960e-002 1.581334e-003 -3.000000e-003
      endloop
   endfacet
   facet normal 0.000000e+000 0.000000e+000 1.000000e+000
      outer loop
         vertex 2.877960e-002 -5.437607e-003 -3.000000e-003
         vertex 3.116648e-002 -5.437607e-003 -3.000000e-003
         vertex 2.877960e-002 -2.428638e-003 -3.000000e-003
      endloop
   endfacet
   facet normal 0.000000e+000 0.000000e+000 1.000000e+000
      outer loop
         vertex 2.877960e-002 -2.428638e-003 -3.000000e-003
         vertex 3.116648e-002 -5.437607e-003 -3.000000e-003
         vertex 3.116648e-002 -2.428638e-003 -3.000000e-003
      endloop
   endfacet
   facet normal 0.000000e+000 0.000000e+000 1.000000e+000
      outer loop
         vertex 3.922703e-002 -2.428638e-003 -3.000000e-003
         vertex 3.922703e-002 1.581334e-003 -3.000000e-003
         vertex 3.116648e-002 -2.428638e-003 -3.000000e-003
      endloop
   endfacet
   facet normal 0.000000e+000 0.000000e+000 1.000000e+000
      outer loop
         vertex 3.116648e-002 -2.428638e-003 -3.000000e-003
         vertex 3.922703e-002 1.581334e-003 -3.000000e-003
         vertex 3.116648e-002 1.581334e-003 -3.000000e-003
      endloop
   endfacet
   facet normal 0.000000e+000 0.000000e+000 1.000000e+000
      outer loop
         vertex 3.116648e-002 -2.428638e-003 -3.000000e-003
         vertex 3.116648e-002 1.581334e-003 -3.000000e-003
         vertex 2.877960e-002 -2.428638e-003 -3.000000e-003
      endloop
   endfacet
   facet normal 0.000000e+000 0.000000e+000 1.000000e+000
      outer loop
         vertex 2.877960e-002 -2.428638e-003 -3.000000e-003
         vertex 3.116648e-002 1.581334e-003 -3.000000e-003
         vertex 2.877960e-002 1.581334e-003 -3.000000e-003
      endloop
   endfacet
   facet normal 0.000000e+000 0.000000e+000 1.000000e+000
      outer loop
         vertex 2.877960e-002 -2.428638e-003 -3.000000e-003
         vertex 2.877960e-002 1.581334e-003 -3.000000e-003
         vertex 2.065968e-002 -2.428638e-003 -3.000000e-003
      endloop
   endfacet
   facet normal 0.000000e+000 0.000000e+000 1.000000e+000
      outer loop
         vertex 2.065968e-002 -2.428638e-003 -3.000000e-003
         vertex 2.877960e-002 1.581334e-003 -3.000000e-003
         vertex 2.065968e-002 1.581334e-003 -3.000000e-003
      endloop
   endfacet
endsolid