solid proximal_pad_1_corrected
   facet normal 0.000000e+000 1.000000e+000 0.000000e+000
      outer loop
         vertex 5.788093e-002 8.000000e-003 -4.125400e-003
         vertex 5.749393e-002 8.000000e-003 -4.021702e-003
         vertex 5.991544e-002 8.000000e-003 5.419735e-003
      endloop
   endfacet
   facet normal 0.000000e+000 1.000000e+000 0.000000e+000
      outer loop
         vertex 5.682361e-002 8.000000e-003 -5.182713e-003
         vertex 5.710692e-002 8.000000e-003 -5.466020e-003
         vertex 5.343742e-002 8.000000e-003 -1.200000e-002
      endloop
   endfacet
   facet normal 0.000000e+000 1.000000e+000 0.000000e+000
      outer loop
         vertex 5.991544e-002 8.000000e-003 -5.972649e-003
         vertex 5.902192e-002 8.000000e-003 -8.429829e-003
         vertex 5.788093e-002 8.000000e-003 -5.466020e-003
      endloop
   endfacet
   facet normal 0.000000e+000 1.000000e+000 0.000000e+000
      outer loop
         vertex 5.991544e-002 8.000000e-003 5.419735e-003
         vertex 5.749393e-002 8.000000e-003 -4.021702e-003
         vertex 4.536383e-002 8.000000e-003 6.760014e-003
      endloop
   endfacet
   facet normal 0.000000e+000 1.000000e+000 0.000000e+000
      outer loop
         vertex 4.536383e-002 8.000000e-003 6.760014e-003
         vertex 5.749393e-002 8.000000e-003 -4.021702e-003
         vertex 5.710692e-002 8.000000e-003 -4.125400e-003
      endloop
   endfacet
   facet normal 0.000000e+000 1.000000e+000 0.000000e+000
      outer loop
         vertex 4.536383e-002 8.000000e-003 6.760014e-003
         vertex 5.710692e-002 8.000000e-003 -4.125400e-003
         vertex 3.358851e-002 8.000000e-003 8.451320e-003
      endloop
   endfacet
   facet normal 0.000000e+000 1.000000e+000 0.000000e+000
      outer loop
         vertex 3.358851e-002 8.000000e-003 8.451320e-003
         vertex 5.710692e-002 8.000000e-003 -4.125400e-003
         vertex 5.682361e-002 8.000000e-003 -4.408706e-003
      endloop
   endfacet
   facet normal 0.000000e+000 1.000000e+000 0.000000e+000
      outer loop
         vertex 3.358851e-002 8.000000e-003 8.451320e-003
         vertex 5.682361e-002 8.000000e-003 -4.408706e-003
         vertex 5.671992e-002 8.000000e-003 -4.795710e-003
      endloop
   endfacet
   facet normal 0.000000e+000 1.000000e+000 0.000000e+000
      outer loop
         vertex 5.788093e-002 8.000000e-003 -5.466020e-003
         vertex 5.902192e-002 8.000000e-003 -8.429829e-003
         vertex 5.749393e-002 8.000000e-003 -5.569717e-003
      endloop
   endfacet
   facet normal 0.000000e+000 1.000000e+000 0.000000e+000
      outer loop
         vertex 5.749393e-002 8.000000e-003 -5.569717e-003
         vertex 5.902192e-002 8.000000e-003 -8.429829e-003
         vertex 5.790502e-002 8.000000e-003 -9.961578e-003
      endloop
   endfacet
   facet normal 0.000000e+000 1.000000e+000 0.000000e+000
      outer loop
         vertex 5.749393e-002 8.000000e-003 -5.569717e-003
         vertex 5.790502e-002 8.000000e-003 -9.961578e-003
         vertex 5.710692e-002 8.000000e-003 -5.466020e-003
      endloop
   endfacet
   facet normal 0.000000e+000 1.000000e+000 0.000000e+000
      outer loop
         vertex 5.710692e-002 8.000000e-003 -5.466020e-003
         vertex 5.790502e-002 8.000000e-003 -9.961578e-003
         vertex 5.579887e-002 8.000000e-003 -1.149333e-002
      endloop
   endfacet
   facet normal 0.000000e+000 1.000000e+000 0.000000e+000
      outer loop
         vertex 5.710692e-002 8.000000e-003 -5.466020e-003
         vertex 5.579887e-002 8.000000e-003 -1.149333e-002
         vertex 5.343742e-002 8.000000e-003 -1.200000e-002
      endloop
   endfacet
   facet normal 0.000000e+000 1.000000e+000 0.000000e+000
      outer loop
         vertex 1.196164e-002 8.000000e-003 -1.072745e-002
         vertex 9.495373e-003 8.000000e-003 -7.568220e-003
         vertex 1.584575e-002 8.000000e-003 -1.200000e-002
      endloop
   endfacet
   facet normal 0.000000e+000 1.000000e+000 0.000000e+000
      outer loop
         vertex 1.584575e-002 8.000000e-003 -1.200000e-002
         vertex 9.495373e-003 8.000000e-003 -7.568220e-003
         vertex 9.289670e-003 8.000000e-003 -3.748178e-003
      endloop
   endfacet
   facet normal 0.000000e+000 1.000000e+000 0.000000e+000
      outer loop
         vertex 5.788093e-002 8.000000e-003 -5.466020e-003
         vertex 5.816424e-002 8.000000e-003 -5.182713e-003
         vertex 5.991544e-002 8.000000e-003 -5.972649e-003
      endloop
   endfacet
   facet normal 0.000000e+000 1.000000e+000 0.000000e+000
      outer loop
         vertex 5.991544e-002 8.000000e-003 -5.972649e-003
         vertex 5.816424e-002 8.000000e-003 -5.182713e-003
         vertex 5.826794e-002 8.000000e-003 -4.795710e-003
      endloop
   endfacet
   facet normal 0.000000e+000 1.000000e+000 0.000000e+000
      outer loop
         vertex 5.991544e-002 8.000000e-003 -5.972649e-003
         vertex 5.826794e-002 8.000000e-003 -4.795710e-003
         vertex 5.991544e-002 8.000000e-003 5.419735e-003
      endloop
   endfacet
   facet normal 0.000000e+000 1.000000e+000 0.000000e+000
      outer loop
         vertex 5.991544e-002 8.000000e-003 5.419735e-003
         vertex 5.826794e-002 8.000000e-003 -4.795710e-003
         vertex 5.816424e-002 8.000000e-003 -4.408706e-003
      endloop
   endfacet
   facet normal 0.000000e+000 1.000000e+000 0.000000e+000
      outer loop
         vertex 5.991544e-002 8.000000e-003 5.419735e-003
         vertex 5.816424e-002 8.000000e-003 -4.408706e-003
         vertex 5.788093e-002 8.000000e-003 -4.125400e-003
      endloop
   endfacet
   facet normal 0.000000e+000 1.000000e+000 0.000000e+000
      outer loop
         vertex 1.142823e-002 8.000000e-003 5.230362e-003
         vertex 1.249505e-002 8.000000e-003 8.164117e-003
         vertex 1.456019e-002 8.000000e-003 1.021696e-002
      endloop
   endfacet
   facet normal 0.000000e+000 1.000000e+000 0.000000e+000
      outer loop
         vertex 5.343742e-002 8.000000e-003 -1.200000e-002
         vertex 1.584575e-002 8.000000e-003 -1.200000e-002
         vertex 5.682361e-002 8.000000e-003 -5.182713e-003
      endloop
   endfacet
   facet normal 0.000000e+000 1.000000e+000 0.000000e+000
      outer loop
         vertex 5.682361e-002 8.000000e-003 -5.182713e-003
         vertex 1.584575e-002 8.000000e-003 -1.200000e-002
         vertex 9.289670e-003 8.000000e-003 -3.748178e-003
      endloop
   endfacet
   facet normal 0.000000e+000 1.000000e+000 0.000000e+000
      outer loop
         vertex 5.682361e-002 8.000000e-003 -5.182713e-003
         vertex 9.289670e-003 8.000000e-003 -3.748178e-003
         vertex 5.671992e-002 8.000000e-003 -4.795710e-003
      endloop
   endfacet
   facet normal 0.000000e+000 1.000000e+000 0.000000e+000
      outer loop
         vertex 5.671992e-002 8.000000e-003 -4.795710e-003
         vertex 9.289670e-003 8.000000e-003 -3.748178e-003
         vertex 1.142823e-002 8.000000e-003 2.132856e-003
      endloop
   endfacet
   facet normal 0.000000e+000 1.000000e+000 0.000000e+000
      outer loop
         vertex 5.671992e-002 8.000000e-003 -4.795710e-003
         vertex 1.142823e-002 8.000000e-003 2.132856e-003
         vertex 3.358851e-002 8.000000e-003 8.451320e-003
      endloop
   endfacet
   facet normal 0.000000e+000 1.000000e+000 0.000000e+000
      outer loop
         vertex 3.358851e-002 8.000000e-003 8.451320e-003
         vertex 1.142823e-002 8.000000e-003 2.132856e-003
         vertex 1.142823e-002 8.000000e-003 5.230362e-003
      endloop
   endfacet
   facet normal 0.000000e+000 1.000000e+000 0.000000e+000
      outer loop
         vertex 3.358851e-002 8.000000e-003 8.451320e-003
         vertex 1.142823e-002 8.000000e-003 5.230362e-003
         vertex 1.897307e-002 8.000000e-003 1.116379e-002
      endloop
   endfacet
   facet normal 0.000000e+000 1.000000e+000 0.000000e+000
      outer loop
         vertex 1.897307e-002 8.000000e-003 1.116379e-002
         vertex 1.142823e-002 8.000000e-003 5.230362e-003
         vertex 1.456019e-002 8.000000e-003 1.021696e-002
      endloop
   endfacet
   facet normal 0.000000e+000 -1.000000e+000 0.000000e+000
      outer loop
         vertex 1.142823e-002 -8.000000e-003 2.132856e-003
         vertex 9.289670e-003 -8.000000e-003 -3.748178e-003
         vertex 5.671992e-002 -8.000000e-003 -4.795710e-003
      endloop
   endfacet
   facet normal 0.000000e+000 -1.000000e+000 0.000000e+000
      outer loop
         vertex 3.358851e-002 -8.000000e-003 8.451320e-003
         vertex 5.682361e-002 -8.000000e-003 -4.408706e-003
         vertex 4.536383e-002 -8.000000e-003 6.760014e-003
      endloop
   endfacet
   facet normal 0.000000e+000 -1.000000e+000 0.000000e+000
      outer loop
         vertex 4.536383e-002 -8.000000e-003 6.760014e-003
         vertex 5.682361e-002 -8.000000e-003 -4.408706e-003
         vertex 5.710692e-002 -8.000000e-003 -4.125400e-003
      endloop
   endfacet
   facet normal 0.000000e+000 -1.000000e+000 0.000000e+000
      outer loop
         vertex 4.536383e-002 -8.000000e-003 6.760014e-003
         vertex 5.710692e-002 -8.000000e-003 -4.125400e-003
         vertex 5.991544e-002 -8.000000e-003 5.419735e-003
      endloop
   endfacet
   facet normal 0.000000e+000 -1.000000e+000 0.000000e+000
      outer loop
         vertex 5.991544e-002 -8.000000e-003 5.419735e-003
         vertex 5.710692e-002 -8.000000e-003 -4.125400e-003
         vertex 5.749393e-002 -8.000000e-003 -4.021702e-003
      endloop
   endfacet
   facet normal 0.000000e+000 -1.000000e+000 0.000000e+000
      outer loop
         vertex 5.749393e-002 -8.000000e-003 -4.021702e-003
         vertex 5.788093e-002 -8.000000e-003 -4.125400e-003
         vertex 5.991544e-002 -8.000000e-003 5.419735e-003
      endloop
   endfacet
   facet normal 0.000000e+000 -1.000000e+000 0.000000e+000
      outer loop
         vertex 5.991544e-002 -8.000000e-003 5.419735e-003
         vertex 5.788093e-002 -8.000000e-003 -4.125400e-003
         vertex 5.816424e-002 -8.000000e-003 -4.408706e-003
      endloop
   endfacet
   facet normal 0.000000e+000 -1.000000e+000 0.000000e+000
      outer loop
         vertex 5.991544e-002 -8.000000e-003 5.419735e-003
         vertex 5.816424e-002 -8.000000e-003 -4.408706e-003
         vertex 5.991544e-002 -8.000000e-003 -5.972649e-003
      endloop
   endfacet
   facet normal 0.000000e+000 -1.000000e+000 0.000000e+000
      outer loop
         vertex 5.710692e-002 -8.000000e-003 -5.466020e-003
         vertex 5.682361e-002 -8.000000e-003 -5.182713e-003
         vertex 1.584575e-002 -8.000000e-003 -1.200000e-002
      endloop
   endfacet
   facet normal 0.000000e+000 -1.000000e+000 0.000000e+000
      outer loop
         vertex 1.584575e-002 -8.000000e-003 -1.200000e-002
         vertex 5.343742e-002 -8.000000e-003 -1.200000e-002
         vertex 5.710692e-002 -8.000000e-003 -5.466020e-003
      endloop
   endfacet
   facet normal 0.000000e+000 -1.000000e+000 0.000000e+000
      outer loop
         vertex 5.710692e-002 -8.000000e-003 -5.466020e-003
         vertex 5.343742e-002 -8.000000e-003 -1.200000e-002
         vertex 5.579887e-002 -8.000000e-003 -1.149333e-002
      endloop
   endfacet
   facet normal 0.000000e+000 -1.000000e+000 0.000000e+000
      outer loop
         vertex 5.710692e-002 -8.000000e-003 -5.466020e-003
         vertex 5.579887e-002 -8.000000e-003 -1.149333e-002
         vertex 5.749393e-002 -8.000000e-003 -5.569717e-003
      endloop
   endfacet
   facet normal 0.000000e+000 -1.000000e+000 0.000000e+000
      outer loop
         vertex 5.749393e-002 -8.000000e-003 -5.569717e-003
         vertex 5.579887e-002 -8.000000e-003 -1.149333e-002
         vertex 5.790502e-002 -8.000000e-003 -9.961578e-003
      endloop
   endfacet
   facet normal 0.000000e+000 -1.000000e+000 0.000000e+000
      outer loop
         vertex 5.749393e-002 -8.000000e-003 -5.569717e-003
         vertex 5.790502e-002 -8.000000e-003 -9.961578e-003
         vertex 5.788093e-002 -8.000000e-003 -5.466020e-003
      endloop
   endfacet
   facet normal 0.000000e+000 -1.000000e+000 0.000000e+000
      outer loop
         vertex 5.788093e-002 -8.000000e-003 -5.466020e-003
         vertex 5.790502e-002 -8.000000e-003 -9.961578e-003
         vertex 5.902192e-002 -8.000000e-003 -8.429829e-003
      endloop
   endfacet
   facet normal 0.000000e+000 -1.000000e+000 0.000000e+000
      outer loop
         vertex 5.788093e-002 -8.000000e-003 -5.466020e-003
         vertex 5.902192e-002 -8.000000e-003 -8.429829e-003
         vertex 5.816424e-002 -8.000000e-003 -5.182713e-003
      endloop
   endfacet
   facet normal 0.000000e+000 -1.000000e+000 0.000000e+000
      outer loop
         vertex 5.816424e-002 -8.000000e-003 -5.182713e-003
         vertex 5.902192e-002 -8.000000e-003 -8.429829e-003
         vertex 5.991544e-002 -8.000000e-003 -5.972649e-003
      endloop
   endfacet
   facet normal 0.000000e+000 -1.000000e+000 0.000000e+000
      outer loop
         vertex 5.816424e-002 -8.000000e-003 -5.182713e-003
         vertex 5.991544e-002 -8.000000e-003 -5.972649e-003
         vertex 5.826794e-002 -8.000000e-003 -4.795710e-003
      endloop
   endfacet
   facet normal 0.000000e+000 -1.000000e+000 0.000000e+000
      outer loop
         vertex 5.826794e-002 -8.000000e-003 -4.795710e-003
         vertex 5.991544e-002 -8.000000e-003 -5.972649e-003
         vertex 5.816424e-002 -8.000000e-003 -4.408706e-003
      endloop
   endfacet
   facet normal 0.000000e+000 -1.000000e+000 0.000000e+000
      outer loop
         vertex 5.682361e-002 -8.000000e-003 -5.182713e-003
         vertex 5.671992e-002 -8.000000e-003 -4.795710e-003
         vertex 1.584575e-002 -8.000000e-003 -1.200000e-002
      endloop
   endfacet
   facet normal 0.000000e+000 -1.000000e+000 0.000000e+000
      outer loop
         vertex 1.584575e-002 -8.000000e-003 -1.200000e-002
         vertex 5.671992e-002 -8.000000e-003 -4.795710e-003
         vertex 9.289670e-003 -8.000000e-003 -3.748178e-003
      endloop
   endfacet
   facet normal 0.000000e+000 -1.000000e+000 0.000000e+000
      outer loop
         vertex 1.584575e-002 -8.000000e-003 -1.200000e-002
         vertex 9.289670e-003 -8.000000e-003 -3.748178e-003
         vertex 1.196164e-002 -8.000000e-003 -1.072745e-002
      endloop
   endfacet
   facet normal 0.000000e+000 -1.000000e+000 0.000000e+000
      outer loop
         vertex 1.196164e-002 -8.000000e-003 -1.072745e-002
         vertex 9.289670e-003 -8.000000e-003 -3.748178e-003
         vertex 9.495373e-003 -8.000000e-003 -7.568220e-003
      endloop
   endfacet
   facet normal 0.000000e+000 -1.000000e+000 0.000000e+000
      outer loop
         vertex 1.456019e-002 -8.000000e-003 1.021696e-002
         vertex 1.249505e-002 -8.000000e-003 8.164117e-003
         vertex 1.897307e-002 -8.000000e-003 1.116379e-002
      endloop
   endfacet
   facet normal 0.000000e+000 -1.000000e+000 0.000000e+000
      outer loop
         vertex 1.897307e-002 -8.000000e-003 1.116379e-002
         vertex 1.249505e-002 -8.000000e-003 8.164117e-003
         vertex 1.142823e-002 -8.000000e-003 5.230362e-003
      endloop
   endfacet
   facet normal 0.000000e+000 -1.000000e+000 0.000000e+000
      outer loop
         vertex 1.897307e-002 -8.000000e-003 1.116379e-002
         vertex 1.142823e-002 -8.000000e-003 5.230362e-003
         vertex 3.358851e-002 -8.000000e-003 8.451320e-003
      endloop
   endfacet
   facet normal 0.000000e+000 -1.000000e+000 0.000000e+000
      outer loop
         vertex 3.358851e-002 -8.000000e-003 8.451320e-003
         vertex 1.142823e-002 -8.000000e-003 5.230362e-003
         vertex 1.142823e-002 -8.000000e-003 2.132856e-003
      endloop
   endfacet
   facet normal 0.000000e+000 -1.000000e+000 0.000000e+000
      outer loop
         vertex 3.358851e-002 -8.000000e-003 8.451320e-003
         vertex 1.142823e-002 -8.000000e-003 2.132856e-003
         vertex 5.682361e-002 -8.000000e-003 -4.408706e-003
      endloop
   endfacet
   facet normal 0.000000e+000 -1.000000e+000 0.000000e+000
      outer loop
         vertex 5.682361e-002 -8.000000e-003 -4.408706e-003
         vertex 1.142823e-002 -8.000000e-003 2.132856e-003
         vertex 5.671992e-002 -8.000000e-003 -4.795710e-003
      endloop
   endfacet
   facet normal -3.113449e-001 0.000000e+000 -9.502970e-001
      outer loop
         vertex 1.196164e-002 8.000000e-003 -1.072745e-002
         vertex 1.584575e-002 8.000000e-003 -1.200000e-002
         vertex 1.196164e-002 -8.000000e-003 -1.072745e-002
      endloop
   endfacet
   facet normal -3.113449e-001 0.000000e+000 -9.502970e-001
      outer loop
         vertex 1.196164e-002 -8.000000e-003 -1.072745e-002
         vertex 1.584575e-002 8.000000e-003 -1.200000e-002
         vertex 1.584575e-002 -8.000000e-003 -1.200000e-002
      endloop
   endfacet
   facet normal -7.882525e-001 0.000000e+000 -6.153519e-001
      outer loop
         vertex 9.495373e-003 8.000000e-003 -7.568220e-003
         vertex 1.196164e-002 8.000000e-003 -1.072745e-002
         vertex 9.495373e-003 -8.000000e-003 -7.568220e-003
      endloop
   endfacet
   facet normal -7.882525e-001 0.000000e+000 -6.153519e-001
      outer loop
         vertex 9.495373e-003 -8.000000e-003 -7.568220e-003
         vertex 1.196164e-002 8.000000e-003 -1.072745e-002
         vertex 1.196164e-002 -8.000000e-003 -1.072745e-002
      endloop
   endfacet
   facet normal -9.985533e-001 0.000000e+000 -5.377041e-002
      outer loop
         vertex 9.289670e-003 8.000000e-003 -3.748178e-003
         vertex 9.495373e-003 8.000000e-003 -7.568220e-003
         vertex 9.289670e-003 -8.000000e-003 -3.748178e-003
      endloop
   endfacet
   facet normal -9.985533e-001 0.000000e+000 -5.377041e-002
      outer loop
         vertex 9.289670e-003 -8.000000e-003 -3.748178e-003
         vertex 9.495373e-003 8.000000e-003 -7.568220e-003
         vertex 9.495373e-003 -8.000000e-003 -7.568220e-003
      endloop
   endfacet
   facet normal -9.397934e-001 0.000000e+000 3.417431e-001
      outer loop
         vertex 1.142823e-002 8.000000e-003 2.132856e-003
         vertex 9.289670e-003 8.000000e-003 -3.748178e-003
         vertex 1.142823e-002 -8.000000e-003 2.132856e-003
      endloop
   endfacet
   facet normal -9.397934e-001 0.000000e+000 3.417431e-001
      outer loop
         vertex 1.142823e-002 -8.000000e-003 2.132856e-003
         vertex 9.289670e-003 8.000000e-003 -3.748178e-003
         vertex 9.289670e-003 -8.000000e-003 -3.748178e-003
      endloop
   endfacet
   facet normal -1.000000e+000 0.000000e+000 0.000000e+000
      outer loop
         vertex 1.142823e-002 8.000000e-003 5.230362e-003
         vertex 1.142823e-002 8.000000e-003 2.132856e-003
         vertex 1.142823e-002 -8.000000e-003 5.230362e-003
      endloop
   endfacet
   facet normal -1.000000e+000 0.000000e+000 0.000000e+000
      outer loop
         vertex 1.142823e-002 -8.000000e-003 5.230362e-003
         vertex 1.142823e-002 8.000000e-003 2.132856e-003
         vertex 1.142823e-002 -8.000000e-003 2.132856e-003
      endloop
   endfacet
   facet normal -9.397934e-001 0.000000e+000 3.417431e-001
      outer loop
         vertex 1.249505e-002 8.000000e-003 8.164117e-003
         vertex 1.142823e-002 8.000000e-003 5.230362e-003
         vertex 1.249505e-002 -8.000000e-003 8.164117e-003
      endloop
   endfacet
   facet normal -9.397934e-001 0.000000e+000 3.417431e-001
      outer loop
         vertex 1.249505e-002 -8.000000e-003 8.164117e-003
         vertex 1.142823e-002 8.000000e-003 5.230362e-003
         vertex 1.142823e-002 -8.000000e-003 5.230362e-003
      endloop
   endfacet
   facet normal -7.049924e-001 0.000000e+000 7.092149e-001
      outer loop
         vertex 1.456019e-002 8.000000e-003 1.021696e-002
         vertex 1.249505e-002 8.000000e-003 8.164117e-003
         vertex 1.456019e-002 -8.000000e-003 1.021696e-002
      endloop
   endfacet
   facet normal -7.049924e-001 0.000000e+000 7.092149e-001
      outer loop
         vertex 1.456019e-002 -8.000000e-003 1.021696e-002
         vertex 1.249505e-002 8.000000e-003 8.164117e-003
         vertex 1.249505e-002 -8.000000e-003 8.164117e-003
      endloop
   endfacet
   facet normal -2.097860e-001 0.000000e+000 9.777473e-001
      outer loop
         vertex 1.897307e-002 8.000000e-003 1.116379e-002
         vertex 1.456019e-002 8.000000e-003 1.021696e-002
         vertex 1.897307e-002 -8.000000e-003 1.116379e-002
      endloop
   endfacet
   facet normal -2.097860e-001 0.000000e+000 9.777473e-001
      outer loop
         vertex 1.897307e-002 -8.000000e-003 1.116379e-002
         vertex 1.456019e-002 8.000000e-003 1.021696e-002
         vertex 1.456019e-002 -8.000000e-003 1.021696e-002
      endloop
   endfacet
   facet normal 1.824736e-001 0.000000e+000 9.832107e-001
      outer loop
         vertex 3.358851e-002 8.000000e-003 8.451320e-003
         vertex 1.897307e-002 8.000000e-003 1.116379e-002
         vertex 3.358851e-002 -8.000000e-003 8.451320e-003
      endloop
   endfacet
   facet normal 1.824736e-001 0.000000e+000 9.832107e-001
      outer loop
         vertex 3.358851e-002 -8.000000e-003 8.451320e-003
         vertex 1.897307e-002 8.000000e-003 1.116379e-002
         vertex 1.897307e-002 -8.000000e-003 1.116379e-002
      endloop
   endfacet
   facet normal 1.421724e-001 0.000000e+000 9.898419e-001
      outer loop
         vertex 4.536383e-002 8.000000e-003 6.760014e-003
         vertex 3.358851e-002 8.000000e-003 8.451320e-003
         vertex 4.536383e-002 -8.000000e-003 6.760014e-003
      endloop
   endfacet
   facet normal 1.421724e-001 0.000000e+000 9.898419e-001
      outer loop
         vertex 4.536383e-002 -8.000000e-003 6.760014e-003
         vertex 3.358851e-002 8.000000e-003 8.451320e-003
         vertex 3.358851e-002 -8.000000e-003 8.451320e-003
      endloop
   endfacet
   facet normal 9.171705e-002 0.000000e+000 9.957851e-001
      outer loop
         vertex 5.991544e-002 8.000000e-003 5.419735e-003
         vertex 4.536383e-002 8.000000e-003 6.760014e-003
         vertex 5.991544e-002 -8.000000e-003 5.419735e-003
      endloop
   endfacet
   facet normal 9.171705e-002 0.000000e+000 9.957851e-001
      outer loop
         vertex 5.991544e-002 -8.000000e-003 5.419735e-003
         vertex 4.536383e-002 8.000000e-003 6.760014e-003
         vertex 4.536383e-002 -8.000000e-003 6.760014e-003
      endloop
   endfacet
   facet normal 1.000000e+000 0.000000e+000 0.000000e+000
      outer loop
         vertex 5.991544e-002 8.000000e-003 -5.972649e-003
         vertex 5.991544e-002 8.000000e-003 5.419735e-003
         vertex 5.991544e-002 -8.000000e-003 -5.972649e-003
      endloop
   endfacet
   facet normal 1.000000e+000 0.000000e+000 0.000000e+000
      outer loop
         vertex 5.991544e-002 -8.000000e-003 -5.972649e-003
         vertex 5.991544e-002 8.000000e-003 5.419735e-003
         vertex 5.991544e-002 -8.000000e-003 5.419735e-003
      endloop
   endfacet
   facet normal 9.397934e-001 0.000000e+000 -3.417431e-001
      outer loop
         vertex 5.902192e-002 8.000000e-003 -8.429829e-003
         vertex 5.991544e-002 8.000000e-003 -5.972649e-003
         vertex 5.902192e-002 -8.000000e-003 -8.429829e-003
      endloop
   endfacet
   facet normal 9.397934e-001 0.000000e+000 -3.417431e-001
      outer loop
         vertex 5.902192e-002 -8.000000e-003 -8.429829e-003
         vertex 5.991544e-002 8.000000e-003 -5.972649e-003
         vertex 5.991544e-002 -8.000000e-003 -5.972649e-003
      endloop
   endfacet
   facet normal 8.080075e-001 0.000000e+000 -5.891722e-001
      outer loop
         vertex 5.790502e-002 8.000000e-003 -9.961578e-003
         vertex 5.902192e-002 8.000000e-003 -8.429829e-003
         vertex 5.790502e-002 -8.000000e-003 -9.961578e-003
      endloop
   endfacet
   facet normal 8.080075e-001 0.000000e+000 -5.891722e-001
      outer loop
         vertex 5.790502e-002 -8.000000e-003 -9.961578e-003
         vertex 5.902192e-002 8.000000e-003 -8.429829e-003
         vertex 5.902192e-002 -8.000000e-003 -8.429829e-003
      endloop
   endfacet
   facet normal 5.881717e-001 0.000000e+000 -8.087361e-001
      outer loop
         vertex 5.579887e-002 8.000000e-003 -1.149333e-002
         vertex 5.790502e-002 8.000000e-003 -9.961578e-003
         vertex 5.579887e-002 -8.000000e-003 -1.149333e-002
      endloop
   endfacet
   facet normal 5.881717e-001 0.000000e+000 -8.087361e-001
      outer loop
         vertex 5.579887e-002 -8.000000e-003 -1.149333e-002
         vertex 5.790502e-002 8.000000e-003 -9.961578e-003
         vertex 5.790502e-002 -8.000000e-003 -9.961578e-003
      endloop
   endfacet
   facet normal 2.097860e-001 0.000000e+000 -9.777473e-001
      outer loop
         vertex 5.343742e-002 8.000000e-003 -1.200000e-002
         vertex 5.579887e-002 8.000000e-003 -1.149333e-002
         vertex 5.343742e-002 -8.000000e-003 -1.200000e-002
      endloop
   endfacet
   facet normal 2.097860e-001 0.000000e+000 -9.777473e-001
      outer loop
         vertex 5.343742e-002 -8.000000e-003 -1.200000e-002
         vertex 5.579887e-002 8.000000e-003 -1.149333e-002
         vertex 5.579887e-002 -8.000000e-003 -1.149333e-002
      endloop
   endfacet
   facet normal 0.000000e+000 0.000000e+000 -1.000000e+000
      outer loop
         vertex 1.584575e-002 8.000000e-003 -1.200000e-002
         vertex 5.343742e-002 8.000000e-003 -1.200000e-002
         vertex 1.584575e-002 -8.000000e-003 -1.200000e-002
      endloop
   endfacet
   facet normal 0.000000e+000 0.000000e+000 -1.000000e+000
      outer loop
         vertex 1.584575e-002 -8.000000e-003 -1.200000e-002
         vertex 5.343742e-002 8.000000e-003 -1.200000e-002
         vertex 5.343742e-002 -8.000000e-003 -1.200000e-002
      endloop
   endfacet
   facet normal -1.718619e-001 0.000000e+000 9.851211e-001
      outer loop
         vertex 5.749393e-002 8.000000e-003 -5.569717e-003
         vertex 5.749393e-002 -8.000000e-003 -5.569717e-003
         vertex 5.788093e-002 8.000000e-003 -5.466020e-003
      endloop
   endfacet
   facet normal -3.437238e-001 0.000000e+000 9.390708e-001
      outer loop
         vertex 5.788093e-002 8.000000e-003 -5.466020e-003
         vertex 5.749393e-002 -8.000000e-003 -5.569717e-003
         vertex 5.788093e-002 -8.000000e-003 -5.466020e-003
      endloop
   endfacet
   facet normal -6.413973e-001 0.000000e+000 7.672089e-001
      outer loop
         vertex 5.788093e-002 8.000000e-003 -5.466020e-003
         vertex 5.788093e-002 -8.000000e-003 -5.466020e-003
         vertex 5.816424e-002 8.000000e-003 -5.182713e-003
      endloop
   endfacet
   facet normal -7.672089e-001 0.000000e+000 6.413973e-001
      outer loop
         vertex 5.816424e-002 8.000000e-003 -5.182713e-003
         vertex 5.788093e-002 -8.000000e-003 -5.466020e-003
         vertex 5.816424e-002 -8.000000e-003 -5.182713e-003
      endloop
   endfacet
   facet normal -9.390708e-001 0.000000e+000 3.437238e-001
      outer loop
         vertex 5.816424e-002 8.000000e-003 -5.182713e-003
         vertex 5.816424e-002 -8.000000e-003 -5.182713e-003
         vertex 5.826794e-002 8.000000e-003 -4.795710e-003
      endloop
   endfacet
   facet normal -9.851211e-001 0.000000e+000 1.718619e-001
      outer loop
         vertex 5.826794e-002 8.000000e-003 -4.795710e-003
         vertex 5.816424e-002 -8.000000e-003 -5.182713e-003
         vertex 5.826794e-002 -8.000000e-003 -4.795710e-003
      endloop
   endfacet
   facet normal -9.851211e-001 0.000000e+000 -1.718619e-001
      outer loop
         vertex 5.826794e-002 8.000000e-003 -4.795710e-003
         vertex 5.826794e-002 -8.000000e-003 -4.795710e-003
         vertex 5.816424e-002 8.000000e-003 -4.408706e-003
      endloop
   endfacet
   facet normal -9.390708e-001 0.000000e+000 -3.437238e-001
      outer loop
         vertex 5.816424e-002 8.000000e-003 -4.408706e-003
         vertex 5.826794e-002 -8.000000e-003 -4.795710e-003
         vertex 5.816424e-002 -8.000000e-003 -4.408706e-003
      endloop
   endfacet
   facet normal -7.672089e-001 0.000000e+000 -6.413973e-001
      outer loop
         vertex 5.816424e-002 8.000000e-003 -4.408706e-003
         vertex 5.816424e-002 -8.000000e-003 -4.408706e-003
         vertex 5.788093e-002 8.000000e-003 -4.125400e-003
      endloop
   endfacet
   facet normal -6.413973e-001 0.000000e+000 -7.672089e-001
      outer loop
         vertex 5.788093e-002 8.000000e-003 -4.125400e-003
         vertex 5.816424e-002 -8.000000e-003 -4.408706e-003
         vertex 5.788093e-002 -8.000000e-003 -4.125400e-003
      endloop
   endfacet
   facet normal -3.437238e-001 0.000000e+000 -9.390708e-001
      outer loop
         vertex 5.788093e-002 8.000000e-003 -4.125400e-003
         vertex 5.788093e-002 -8.000000e-003 -4.125400e-003
         vertex 5.749393e-002 8.000000e-003 -4.021702e-003
      endloop
   endfacet
   facet normal -1.718619e-001 0.000000e+000 -9.851211e-001
      outer loop
         vertex 5.749393e-002 8.000000e-003 -4.021702e-003
         vertex 5.788093e-002 -8.000000e-003 -4.125400e-003
         vertex 5.749393e-002 -8.000000e-003 -4.021702e-003
      endloop
   endfacet
   facet normal 1.718619e-001 0.000000e+000 -9.851211e-001
      outer loop
         vertex 5.749393e-002 8.000000e-003 -4.021702e-003
         vertex 5.749393e-002 -8.000000e-003 -4.021702e-003
         vertex 5.710692e-002 8.000000e-003 -4.125400e-003
      endloop
   endfacet
   facet normal 3.437238e-001 0.000000e+000 -9.390708e-001
      outer loop
         vertex 5.710692e-002 8.000000e-003 -4.125400e-003
         vertex 5.749393e-002 -8.000000e-003 -4.021702e-003
         vertex 5.710692e-002 -8.000000e-003 -4.125400e-003
      endloop
   endfacet
   facet normal 6.413973e-001 0.000000e+000 -7.672089e-001
      outer loop
         vertex 5.710692e-002 8.000000e-003 -4.125400e-003
         vertex 5.710692e-002 -8.000000e-003 -4.125400e-003
         vertex 5.682361e-002 8.000000e-003 -4.408706e-003
      endloop
   endfacet
   facet normal 7.672089e-001 0.000000e+000 -6.413973e-001
      outer loop
         vertex 5.682361e-002 8.000000e-003 -4.408706e-003
         vertex 5.710692e-002 -8.000000e-003 -4.125400e-003
         vertex 5.682361e-002 -8.000000e-003 -4.408706e-003
      endloop
   endfacet
   facet normal 9.390708e-001 0.000000e+000 -3.437238e-001
      outer loop
         vertex 5.682361e-002 8.000000e-003 -4.408706e-003
         vertex 5.682361e-002 -8.000000e-003 -4.408706e-003
         vertex 5.671992e-002 8.000000e-003 -4.795710e-003
      endloop
   endfacet
   facet normal 9.851211e-001 0.000000e+000 -1.718619e-001
      outer loop
         vertex 5.671992e-002 8.000000e-003 -4.795710e-003
         vertex 5.682361e-002 -8.000000e-003 -4.408706e-003
         vertex 5.671992e-002 -8.000000e-003 -4.795710e-003
      endloop
   endfacet
   facet normal 9.851211e-001 0.000000e+000 1.718619e-001
      outer loop
         vertex 5.671992e-002 8.000000e-003 -4.795710e-003
         vertex 5.671992e-002 -8.000000e-003 -4.795710e-003
         vertex 5.682361e-002 8.000000e-003 -5.182713e-003
      endloop
   endfacet
   facet normal 9.390708e-001 0.000000e+000 3.437238e-001
      outer loop
         vertex 5.682361e-002 8.000000e-003 -5.182713e-003
         vertex 5.671992e-002 -8.000000e-003 -4.795710e-003
         vertex 5.682361e-002 -8.000000e-003 -5.182713e-003
      endloop
   endfacet
   facet normal 7.672089e-001 0.000000e+000 6.413973e-001
      outer loop
         vertex 5.682361e-002 8.000000e-003 -5.182713e-003
         vertex 5.682361e-002 -8.000000e-003 -5.182713e-003
         vertex 5.710692e-002 8.000000e-003 -5.466020e-003
      endloop
   endfacet
   facet normal 6.413973e-001 0.000000e+000 7.672089e-001
      outer loop
         vertex 5.710692e-002 8.000000e-003 -5.466020e-003
         vertex 5.682361e-002 -8.000000e-003 -5.182713e-003
         vertex 5.710692e-002 -8.000000e-003 -5.466020e-003
      endloop
   endfacet
   facet normal 3.437238e-001 0.000000e+000 9.390708e-001
      outer loop
         vertex 5.710692e-002 8.000000e-003 -5.466020e-003
         vertex 5.710692e-002 -8.000000e-003 -5.466020e-003
         vertex 5.749393e-002 8.000000e-003 -5.569717e-003
      endloop
   endfacet
   facet normal 1.718619e-001 0.000000e+000 9.851211e-001
      outer loop
         vertex 5.749393e-002 8.000000e-003 -5.569717e-003
         vertex 5.710692e-002 -8.000000e-003 -5.466020e-003
         vertex 5.749393e-002 -8.000000e-003 -5.569717e-003
      endloop
   endfacet
endsolid