solid proximal_1_corrected
   facet normal 0.000000e+000 1.000000e+000 0.000000e+000
      outer loop
         vertex 3.380317e-002 7.000000e-003 3.888631e-003
         vertex 5.868717e-002 7.000000e-003 1.054223e-003
         vertex 5.984925e-002 7.000000e-003 -5.716328e-004
      endloop
   endfacet
   facet normal 0.000000e+000 1.000000e+000 0.000000e+000
      outer loop
         vertex -2.956038e-003 7.000000e-003 2.956038e-003
         vertex -6.070917e-003 7.000000e-003 9.086158e-003
         vertex -1.599796e-003 7.000000e-003 3.862251e-003
      endloop
   endfacet
   facet normal 0.000000e+000 1.000000e+000 0.000000e+000
      outer loop
         vertex -1.599796e-003 7.000000e-003 3.862251e-003
         vertex -6.070917e-003 7.000000e-003 9.086158e-003
         vertex -3.635178e-003 7.000000e-003 1.030533e-002
      endloop
   endfacet
   facet normal 0.000000e+000 1.000000e+000 0.000000e+000
      outer loop
         vertex -1.599796e-003 7.000000e-003 3.862251e-003
         vertex -3.635178e-003 7.000000e-003 1.030533e-002
         vertex -5.960464e-011 7.000000e-003 4.180470e-003
      endloop
   endfacet
   facet normal 0.000000e+000 1.000000e+000 0.000000e+000
      outer loop
         vertex 3.862251e-003 7.000000e-003 -1.599796e-003
         vertex 5.110464e-002 7.000000e-003 -9.514978e-003
         vertex 2.956038e-003 7.000000e-003 -2.956038e-003
      endloop
   endfacet
   facet normal 0.000000e+000 1.000000e+000 0.000000e+000
      outer loop
         vertex 2.956038e-003 7.000000e-003 -2.956038e-003
         vertex 5.110464e-002 7.000000e-003 -9.514978e-003
         vertex 1.433756e-002 7.000000e-003 -9.514978e-003
      endloop
   endfacet
   facet normal 0.000000e+000 1.000000e+000 0.000000e+000
      outer loop
         vertex 2.956038e-003 7.000000e-003 -2.956038e-003
         vertex 1.433756e-002 7.000000e-003 -9.514978e-003
         vertex 1.599797e-003 7.000000e-003 -3.862251e-003
      endloop
   endfacet
   facet normal 0.000000e+000 1.000000e+000 0.000000e+000
      outer loop
         vertex 1.599797e-003 7.000000e-003 -3.862251e-003
         vertex 1.433756e-002 7.000000e-003 -9.514978e-003
         vertex 2.132746e-003 7.000000e-003 -1.071754e-002
      endloop
   endfacet
   facet normal 0.000000e+000 1.000000e+000 0.000000e+000
      outer loop
         vertex 1.599797e-003 7.000000e-003 -3.862251e-003
         vertex 2.132746e-003 7.000000e-003 -1.071754e-002
         vertex -5.960464e-011 7.000000e-003 -4.180470e-003
      endloop
   endfacet
   facet normal 0.000000e+000 1.000000e+000 0.000000e+000
      outer loop
         vertex -5.960464e-011 7.000000e-003 -4.180470e-003
         vertex 2.132746e-003 7.000000e-003 -1.071754e-002
         vertex -5.841191e-004 7.000000e-003 -1.091206e-002
      endloop
   endfacet
   facet normal 0.000000e+000 1.000000e+000 0.000000e+000
      outer loop
         vertex -5.960464e-011 7.000000e-003 -4.180470e-003
         vertex -5.841191e-004 7.000000e-003 -1.091206e-002
         vertex -1.599796e-003 7.000000e-003 -3.862251e-003
      endloop
   endfacet
   facet normal 0.000000e+000 1.000000e+000 0.000000e+000
      outer loop
         vertex -4.180470e-003 7.000000e-003 -5.960464e-011
         vertex -1.063481e-002 7.000000e-003 2.512988e-003
         vertex -3.862251e-003 7.000000e-003 1.599797e-003
      endloop
   endfacet
   facet normal 0.000000e+000 1.000000e+000 0.000000e+000
      outer loop
         vertex -3.862251e-003 7.000000e-003 1.599797e-003
         vertex -1.063481e-002 7.000000e-003 2.512988e-003
         vertex -9.682941e-003 7.000000e-003 5.065074e-003
      endloop
   endfacet
   facet normal 0.000000e+000 1.000000e+000 0.000000e+000
      outer loop
         vertex -3.862251e-003 7.000000e-003 1.599797e-003
         vertex -9.682941e-003 7.000000e-003 5.065074e-003
         vertex -2.956038e-003 7.000000e-003 2.956038e-003
      endloop
   endfacet
   facet normal 0.000000e+000 1.000000e+000 0.000000e+000
      outer loop
         vertex -2.956038e-003 7.000000e-003 2.956038e-003
         vertex -9.682941e-003 7.000000e-003 5.065074e-003
         vertex -8.129471e-003 7.000000e-003 7.302467e-003
      endloop
   endfacet
   facet normal 0.000000e+000 1.000000e+000 0.000000e+000
      outer loop
         vertex -2.956038e-003 7.000000e-003 2.956038e-003
         vertex -8.129471e-003 7.000000e-003 7.302467e-003
         vertex -6.070917e-003 7.000000e-003 9.086158e-003
      endloop
   endfacet
   facet normal 0.000000e+000 1.000000e+000 0.000000e+000
      outer loop
         vertex -5.841191e-004 7.000000e-003 -1.091206e-002
         vertex -3.264694e-003 7.000000e-003 -1.042862e-002
         vertex -1.599796e-003 7.000000e-003 -3.862251e-003
      endloop
   endfacet
   facet normal 0.000000e+000 1.000000e+000 0.000000e+000
      outer loop
         vertex -1.599796e-003 7.000000e-003 -3.862251e-003
         vertex -3.264694e-003 7.000000e-003 -1.042862e-002
         vertex -5.742433e-003 7.000000e-003 -9.297245e-003
      endloop
   endfacet
   facet normal 0.000000e+000 1.000000e+000 0.000000e+000
      outer loop
         vertex -1.599796e-003 7.000000e-003 -3.862251e-003
         vertex -5.742433e-003 7.000000e-003 -9.297245e-003
         vertex -2.956038e-003 7.000000e-003 -2.956038e-003
      endloop
   endfacet
   facet normal 0.000000e+000 1.000000e+000 0.000000e+000
      outer loop
         vertex 5.984925e-002 7.000000e-003 -5.716328e-004
         vertex 5.984925e-002 7.000000e-003 -9.514978e-003
         vertex 5.819228e-002 7.000000e-003 -1.069930e-002
      endloop
   endfacet
   facet normal 0.000000e+000 1.000000e+000 0.000000e+000
      outer loop
         vertex 5.984925e-002 7.000000e-003 -5.716328e-004
         vertex 4.180470e-003 7.000000e-003 -5.960464e-011
         vertex 3.380317e-002 7.000000e-003 3.888631e-003
      endloop
   endfacet
   facet normal 0.000000e+000 1.000000e+000 0.000000e+000
      outer loop
         vertex 3.380317e-002 7.000000e-003 3.888631e-003
         vertex 4.180470e-003 7.000000e-003 -5.960464e-011
         vertex 3.862251e-003 7.000000e-003 1.599797e-003
      endloop
   endfacet
   facet normal 0.000000e+000 1.000000e+000 0.000000e+000
      outer loop
         vertex 3.380317e-002 7.000000e-003 3.888631e-003
         vertex 3.862251e-003 7.000000e-003 1.599797e-003
         vertex 4.361942e-003 7.000000e-003 1.001937e-002
      endloop
   endfacet
   facet normal 0.000000e+000 1.000000e+000 0.000000e+000
      outer loop
         vertex -5.742433e-003 7.000000e-003 -9.297245e-003
         vertex -7.863397e-003 7.000000e-003 -7.588235e-003
         vertex -2.956038e-003 7.000000e-003 -2.956038e-003
      endloop
   endfacet
   facet normal 0.000000e+000 1.000000e+000 0.000000e+000
      outer loop
         vertex -2.956038e-003 7.000000e-003 -2.956038e-003
         vertex -7.863397e-003 7.000000e-003 -7.588235e-003
         vertex -9.495807e-003 7.000000e-003 -5.407768e-003
      endloop
   endfacet
   facet normal 0.000000e+000 1.000000e+000 0.000000e+000
      outer loop
         vertex -2.956038e-003 7.000000e-003 -2.956038e-003
         vertex -9.495807e-003 7.000000e-003 -5.407768e-003
         vertex -3.862251e-003 7.000000e-003 -1.599796e-003
      endloop
   endfacet
   facet normal 0.000000e+000 1.000000e+000 0.000000e+000
      outer loop
         vertex -3.862251e-003 7.000000e-003 -1.599796e-003
         vertex -9.495807e-003 7.000000e-003 -5.407768e-003
         vertex -1.053824e-002 7.000000e-003 -2.891318e-003
      endloop
   endfacet
   facet normal 0.000000e+000 1.000000e+000 0.000000e+000
      outer loop
         vertex -3.862251e-003 7.000000e-003 -1.599796e-003
         vertex -1.053824e-002 7.000000e-003 -2.891318e-003
         vertex -4.180470e-003 7.000000e-003 -5.960464e-011
      endloop
   endfacet
   facet normal 0.000000e+000 1.000000e+000 0.000000e+000
      outer loop
         vertex -4.180470e-003 7.000000e-003 -5.960464e-011
         vertex -1.053824e-002 7.000000e-003 -2.891318e-003
         vertex -1.092594e-002 7.000000e-003 -1.952295e-004
      endloop
   endfacet
   facet normal 0.000000e+000 1.000000e+000 0.000000e+000
      outer loop
         vertex -4.180470e-003 7.000000e-003 -5.960464e-011
         vertex -1.092594e-002 7.000000e-003 -1.952295e-004
         vertex -1.063481e-002 7.000000e-003 2.512988e-003
      endloop
   endfacet
   facet normal 0.000000e+000 1.000000e+000 0.000000e+000
      outer loop
         vertex 3.862251e-003 7.000000e-003 -1.599796e-003
         vertex 4.180470e-003 7.000000e-003 -5.960464e-011
         vertex 5.110464e-002 7.000000e-003 -9.514978e-003
      endloop
   endfacet
   facet normal 0.000000e+000 1.000000e+000 0.000000e+000
      outer loop
         vertex 5.110464e-002 7.000000e-003 -9.514978e-003
         vertex 4.180470e-003 7.000000e-003 -5.960464e-011
         vertex 5.984925e-002 7.000000e-003 -5.716328e-004
      endloop
   endfacet
   facet normal 0.000000e+000 1.000000e+000 0.000000e+000
      outer loop
         vertex 5.110464e-002 7.000000e-003 -9.514978e-003
         vertex 5.984925e-002 7.000000e-003 -5.716328e-004
         vertex 5.587443e-002 7.000000e-003 -1.092769e-002
      endloop
   endfacet
   facet normal 0.000000e+000 1.000000e+000 0.000000e+000
      outer loop
         vertex 5.587443e-002 7.000000e-003 -1.092769e-002
         vertex 5.984925e-002 7.000000e-003 -5.716328e-004
         vertex 5.819228e-002 7.000000e-003 -1.069930e-002
      endloop
   endfacet
   facet normal 0.000000e+000 1.000000e+000 0.000000e+000
      outer loop
         vertex 3.862251e-003 7.000000e-003 1.599797e-003
         vertex 2.956038e-003 7.000000e-003 2.956038e-003
         vertex 4.361942e-003 7.000000e-003 1.001937e-002
      endloop
   endfacet
   facet normal 0.000000e+000 1.000000e+000 0.000000e+000
      outer loop
         vertex 4.361942e-003 7.000000e-003 1.001937e-002
         vertex 2.956038e-003 7.000000e-003 2.956038e-003
         vertex 1.599797e-003 7.000000e-003 3.862251e-003
      endloop
   endfacet
   facet normal 0.000000e+000 1.000000e+000 0.000000e+000
      outer loop
         vertex 4.361942e-003 7.000000e-003 1.001937e-002
         vertex 1.599797e-003 7.000000e-003 3.862251e-003
         vertex 1.748495e-003 7.000000e-003 1.078689e-002
      endloop
   endfacet
   facet normal 0.000000e+000 1.000000e+000 0.000000e+000
      outer loop
         vertex 1.748495e-003 7.000000e-003 1.078689e-002
         vertex 1.599797e-003 7.000000e-003 3.862251e-003
         vertex -5.960464e-011 7.000000e-003 4.180470e-003
      endloop
   endfacet
   facet normal 0.000000e+000 1.000000e+000 0.000000e+000
      outer loop
         vertex 1.748495e-003 7.000000e-003 1.078689e-002
         vertex -5.960464e-011 7.000000e-003 4.180470e-003
         vertex -9.735861e-004 7.000000e-003 1.088423e-002
      endloop
   endfacet
   facet normal 0.000000e+000 1.000000e+000 0.000000e+000
      outer loop
         vertex -9.735861e-004 7.000000e-003 1.088423e-002
         vertex -5.960464e-011 7.000000e-003 4.180470e-003
         vertex -3.635178e-003 7.000000e-003 1.030533e-002
      endloop
   endfacet
   facet normal 0.000000e+000 -1.000000e+000 0.000000e+000
      outer loop
         vertex 5.819228e-002 -7.000000e-003 -1.069930e-002
         vertex 5.984925e-002 -7.000000e-003 -9.514978e-003
         vertex 5.984925e-002 -7.000000e-003 -5.716328e-004
      endloop
   endfacet
   facet normal 0.000000e+000 -1.000000e+000 0.000000e+000
      outer loop
         vertex 5.984925e-002 -7.000000e-003 -5.716328e-004
         vertex 5.868717e-002 -7.000000e-003 1.054223e-003
         vertex 3.380317e-002 -7.000000e-003 3.888631e-003
      endloop
   endfacet
   facet normal 0.000000e+000 -1.000000e+000 0.000000e+000
      outer loop
         vertex 4.180470e-003 -7.000000e-003 -5.960464e-011
         vertex 3.862251e-003 -7.000000e-003 -1.599796e-003
         vertex 5.819228e-002 -7.000000e-003 -1.069930e-002
      endloop
   endfacet
   facet normal 0.000000e+000 -1.000000e+000 0.000000e+000
      outer loop
         vertex 5.819228e-002 -7.000000e-003 -1.069930e-002
         vertex 5.984925e-002 -7.000000e-003 -5.716328e-004
         vertex 4.180470e-003 -7.000000e-003 -5.960464e-011
      endloop
   endfacet
   facet normal 0.000000e+000 -1.000000e+000 0.000000e+000
      outer loop
         vertex 4.180470e-003 -7.000000e-003 -5.960464e-011
         vertex 5.984925e-002 -7.000000e-003 -5.716328e-004
         vertex 3.380317e-002 -7.000000e-003 3.888631e-003
      endloop
   endfacet
   facet normal 0.000000e+000 -1.000000e+000 0.000000e+000
      outer loop
         vertex 4.180470e-003 -7.000000e-003 -5.960464e-011
         vertex 3.380317e-002 -7.000000e-003 3.888631e-003
         vertex 3.862251e-003 -7.000000e-003 1.599797e-003
      endloop
   endfacet
   facet normal 0.000000e+000 -1.000000e+000 0.000000e+000
      outer loop
         vertex 5.587443e-002 -7.000000e-003 -1.092769e-002
         vertex 5.819228e-002 -7.000000e-003 -1.069930e-002
         vertex 5.110464e-002 -7.000000e-003 -9.514978e-003
      endloop
   endfacet
   facet normal 0.000000e+000 -1.000000e+000 0.000000e+000
      outer loop
         vertex 5.110464e-002 -7.000000e-003 -9.514978e-003
         vertex 5.819228e-002 -7.000000e-003 -1.069930e-002
         vertex 3.862251e-003 -7.000000e-003 -1.599796e-003
      endloop
   endfacet
   facet normal 0.000000e+000 -1.000000e+000 0.000000e+000
      outer loop
         vertex 5.110464e-002 -7.000000e-003 -9.514978e-003
         vertex 3.862251e-003 -7.000000e-003 -1.599796e-003
         vertex 1.433756e-002 -7.000000e-003 -9.514978e-003
      endloop
   endfacet
   facet normal 0.000000e+000 -1.000000e+000 0.000000e+000
      outer loop
         vertex 1.433756e-002 -7.000000e-003 -9.514978e-003
         vertex 3.862251e-003 -7.000000e-003 -1.599796e-003
         vertex 2.956038e-003 -7.000000e-003 -2.956038e-003
      endloop
   endfacet
   facet normal 0.000000e+000 -1.000000e+000 0.000000e+000
      outer loop
         vertex 1.433756e-002 -7.000000e-003 -9.514978e-003
         vertex 2.956038e-003 -7.000000e-003 -2.956038e-003
         vertex 2.132746e-003 -7.000000e-003 -1.071754e-002
      endloop
   endfacet
   facet normal 0.000000e+000 -1.000000e+000 0.000000e+000
      outer loop
         vertex 2.132746e-003 -7.000000e-003 -1.071754e-002
         vertex 2.956038e-003 -7.000000e-003 -2.956038e-003
         vertex 1.599797e-003 -7.000000e-003 -3.862251e-003
      endloop
   endfacet
   facet normal 0.000000e+000 -1.000000e+000 0.000000e+000
      outer loop
         vertex 2.132746e-003 -7.000000e-003 -1.071754e-002
         vertex 1.599797e-003 -7.000000e-003 -3.862251e-003
         vertex -5.841191e-004 -7.000000e-003 -1.091206e-002
      endloop
   endfacet
   facet normal 0.000000e+000 -1.000000e+000 0.000000e+000
      outer loop
         vertex -5.841191e-004 -7.000000e-003 -1.091206e-002
         vertex 1.599797e-003 -7.000000e-003 -3.862251e-003
         vertex -5.960464e-011 -7.000000e-003 -4.180470e-003
      endloop
   endfacet
   facet normal 0.000000e+000 -1.000000e+000 0.000000e+000
      outer loop
         vertex -5.841191e-004 -7.000000e-003 -1.091206e-002
         vertex -5.960464e-011 -7.000000e-003 -4.180470e-003
         vertex -3.264694e-003 -7.000000e-003 -1.042862e-002
      endloop
   endfacet
   facet normal 0.000000e+000 -1.000000e+000 0.000000e+000
      outer loop
         vertex -3.264694e-003 -7.000000e-003 -1.042862e-002
         vertex -5.960464e-011 -7.000000e-003 -4.180470e-003
         vertex -1.599796e-003 -7.000000e-003 -3.862251e-003
      endloop
   endfacet
   facet normal 0.000000e+000 -1.000000e+000 0.000000e+000
      outer loop
         vertex -3.264694e-003 -7.000000e-003 -1.042862e-002
         vertex -1.599796e-003 -7.000000e-003 -3.862251e-003
         vertex -5.742433e-003 -7.000000e-003 -9.297245e-003
      endloop
   endfacet
   facet normal 0.000000e+000 -1.000000e+000 0.000000e+000
      outer loop
         vertex -5.742433e-003 -7.000000e-003 -9.297245e-003
         vertex -1.599796e-003 -7.000000e-003 -3.862251e-003
         vertex -2.956038e-003 -7.000000e-003 -2.956038e-003
      endloop
   endfacet
   facet normal 0.000000e+000 -1.000000e+000 0.000000e+000
      outer loop
         vertex -3.862251e-003 -7.000000e-003 1.599797e-003
         vertex -1.063481e-002 -7.000000e-003 2.512988e-003
         vertex -4.180470e-003 -7.000000e-003 -5.960464e-011
      endloop
   endfacet
   facet normal 0.000000e+000 -1.000000e+000 0.000000e+000
      outer loop
         vertex -4.180470e-003 -7.000000e-003 -5.960464e-011
         vertex -1.063481e-002 -7.000000e-003 2.512988e-003
         vertex -1.092594e-002 -7.000000e-003 -1.952295e-004
      endloop
   endfacet
   facet normal 0.000000e+000 -1.000000e+000 0.000000e+000
      outer loop
         vertex -4.180470e-003 -7.000000e-003 -5.960464e-011
         vertex -1.092594e-002 -7.000000e-003 -1.952295e-004
         vertex -3.862251e-003 -7.000000e-003 -1.599796e-003
      endloop
   endfacet
   facet normal 0.000000e+000 -1.000000e+000 0.000000e+000
      outer loop
         vertex -1.092594e-002 -7.000000e-003 -1.952295e-004
         vertex -1.053824e-002 -7.000000e-003 -2.891318e-003
         vertex -3.862251e-003 -7.000000e-003 -1.599796e-003
      endloop
   endfacet
   facet normal 0.000000e+000 -1.000000e+000 0.000000e+000
      outer loop
         vertex -3.862251e-003 -7.000000e-003 -1.599796e-003
         vertex -1.053824e-002 -7.000000e-003 -2.891318e-003
         vertex -9.495807e-003 -7.000000e-003 -5.407768e-003
      endloop
   endfacet
   facet normal 0.000000e+000 -1.000000e+000 0.000000e+000
      outer loop
         vertex -3.862251e-003 -7.000000e-003 -1.599796e-003
         vertex -9.495807e-003 -7.000000e-003 -5.407768e-003
         vertex -2.956038e-003 -7.000000e-003 -2.956038e-003
      endloop
   endfacet
   facet normal 0.000000e+000 -1.000000e+000 0.000000e+000
      outer loop
         vertex -2.956038e-003 -7.000000e-003 -2.956038e-003
         vertex -9.495807e-003 -7.000000e-003 -5.407768e-003
         vertex -7.863397e-003 -7.000000e-003 -7.588235e-003
      endloop
   endfacet
   facet normal 0.000000e+000 -1.000000e+000 0.000000e+000
      outer loop
         vertex -2.956038e-003 -7.000000e-003 -2.956038e-003
         vertex -7.863397e-003 -7.000000e-003 -7.588235e-003
         vertex -5.742433e-003 -7.000000e-003 -9.297245e-003
      endloop
   endfacet
   facet normal 0.000000e+000 -1.000000e+000 0.000000e+000
      outer loop
         vertex -1.599796e-003 -7.000000e-003 3.862251e-003
         vertex -6.070917e-003 -7.000000e-003 9.086158e-003
         vertex -2.956038e-003 -7.000000e-003 2.956038e-003
      endloop
   endfacet
   facet normal 0.000000e+000 -1.000000e+000 0.000000e+000
      outer loop
         vertex -2.956038e-003 -7.000000e-003 2.956038e-003
         vertex -6.070917e-003 -7.000000e-003 9.086158e-003
         vertex -8.129471e-003 -7.000000e-003 7.302467e-003
      endloop
   endfacet
   facet normal 0.000000e+000 -1.000000e+000 0.000000e+000
      outer loop
         vertex -2.956038e-003 -7.000000e-003 2.956038e-003
         vertex -8.129471e-003 -7.000000e-003 7.302467e-003
         vertex -3.862251e-003 -7.000000e-003 1.599797e-003
      endloop
   endfacet
   facet normal 0.000000e+000 -1.000000e+000 0.000000e+000
      outer loop
         vertex -3.862251e-003 -7.000000e-003 1.599797e-003
         vertex -8.129471e-003 -7.000000e-003 7.302467e-003
         vertex -9.682941e-003 -7.000000e-003 5.065074e-003
      endloop
   endfacet
   facet normal 0.000000e+000 -1.000000e+000 0.000000e+000
      outer loop
         vertex -3.862251e-003 -7.000000e-003 1.599797e-003
         vertex -9.682941e-003 -7.000000e-003 5.065074e-003
         vertex -1.063481e-002 -7.000000e-003 2.512988e-003
      endloop
   endfacet
   facet normal 0.000000e+000 -1.000000e+000 0.000000e+000
      outer loop
         vertex 3.862251e-003 -7.000000e-003 1.599797e-003
         vertex 3.380317e-002 -7.000000e-003 3.888631e-003
         vertex 2.956038e-003 -7.000000e-003 2.956038e-003
      endloop
   endfacet
   facet normal 0.000000e+000 -1.000000e+000 0.000000e+000
      outer loop
         vertex 2.956038e-003 -7.000000e-003 2.956038e-003
         vertex 3.380317e-002 -7.000000e-003 3.888631e-003
         vertex 4.361942e-003 -7.000000e-003 1.001937e-002
      endloop
   endfacet
   facet normal 0.000000e+000 -1.000000e+000 0.000000e+000
      outer loop
         vertex 2.956038e-003 -7.000000e-003 2.956038e-003
         vertex 4.361942e-003 -7.000000e-003 1.001937e-002
         vertex 1.599797e-003 -7.000000e-003 3.862251e-003
      endloop
   endfacet
   facet normal 0.000000e+000 -1.000000e+000 0.000000e+000
      outer loop
         vertex 1.599797e-003 -7.000000e-003 3.862251e-003
         vertex 4.361942e-003 -7.000000e-003 1.001937e-002
         vertex 1.748495e-003 -7.000000e-003 1.078689e-002
      endloop
   endfacet
   facet normal 0.000000e+000 -1.000000e+000 0.000000e+000
      outer loop
         vertex 1.599797e-003 -7.000000e-003 3.862251e-003
         vertex 1.748495e-003 -7.000000e-003 1.078689e-002
         vertex -5.960464e-011 -7.000000e-003 4.180470e-003
      endloop
   endfacet
   facet normal 0.000000e+000 -1.000000e+000 0.000000e+000
      outer loop
         vertex -5.960464e-011 -7.000000e-003 4.180470e-003
         vertex 1.748495e-003 -7.000000e-003 1.078689e-002
         vertex -9.735861e-004 -7.000000e-003 1.088423e-002
      endloop
   endfacet
   facet normal 0.000000e+000 -1.000000e+000 0.000000e+000
      outer loop
         vertex -5.960464e-011 -7.000000e-003 4.180470e-003
         vertex -9.735861e-004 -7.000000e-003 1.088423e-002
         vertex -1.599796e-003 -7.000000e-003 3.862251e-003
      endloop
   endfacet
   facet normal 0.000000e+000 -1.000000e+000 0.000000e+000
      outer loop
         vertex -1.599796e-003 -7.000000e-003 3.862251e-003
         vertex -9.735861e-004 -7.000000e-003 1.088423e-002
         vertex -3.635178e-003 -7.000000e-003 1.030533e-002
      endloop
   endfacet
   facet normal 0.000000e+000 -1.000000e+000 0.000000e+000
      outer loop
         vertex -1.599796e-003 -7.000000e-003 3.862251e-003
         vertex -3.635178e-003 -7.000000e-003 1.030533e-002
         vertex -6.070917e-003 -7.000000e-003 9.086158e-003
      endloop
   endfacet
   facet normal 0.000000e+000 0.000000e+000 -1.000000e+000
      outer loop
         vertex 1.433756e-002 7.000000e-003 -9.514978e-003
         vertex 5.110464e-002 7.000000e-003 -9.514978e-003
         vertex 1.433756e-002 -7.000000e-003 -9.514978e-003
      endloop
   endfacet
   facet normal 0.000000e+000 0.000000e+000 -1.000000e+000
      outer loop
         vertex 1.433756e-002 -7.000000e-003 -9.514978e-003
         vertex 5.110464e-002 7.000000e-003 -9.514978e-003
         vertex 5.110464e-002 -7.000000e-003 -9.514978e-003
      endloop
   endfacet
   facet normal 9.805711e-002 0.000000e+000 -9.951808e-001
      outer loop
         vertex 2.132746e-003 7.000000e-003 -1.071754e-002
         vertex 1.433756e-002 7.000000e-003 -9.514978e-003
         vertex 2.132746e-003 -7.000000e-003 -1.071754e-002
      endloop
   endfacet
   facet normal 9.805711e-002 0.000000e+000 -9.951808e-001
      outer loop
         vertex 2.132746e-003 -7.000000e-003 -1.071754e-002
         vertex 1.433756e-002 7.000000e-003 -9.514978e-003
         vertex 1.433756e-002 -7.000000e-003 -9.514978e-003
      endloop
   endfacet
   facet normal 1.130783e-001 0.000000e+000 -9.935861e-001
      outer loop
         vertex 2.132746e-003 7.000000e-003 -1.071754e-002
         vertex 2.132746e-003 -7.000000e-003 -1.071754e-002
         vertex -5.841191e-004 -7.000000e-003 -1.091206e-002
      endloop
   endfacet
   facet normal 2.962614e-002 0.000000e+000 -9.995611e-001
      outer loop
         vertex 2.132746e-003 7.000000e-003 -1.071754e-002
         vertex -5.841191e-004 -7.000000e-003 -1.091206e-002
         vertex -5.841191e-004 7.000000e-003 -1.091206e-002
      endloop
   endfacet
   facet normal -1.361635e-001 0.000000e+000 -9.906864e-001
      outer loop
         vertex -5.841191e-004 7.000000e-003 -1.091206e-002
         vertex -5.841191e-004 -7.000000e-003 -1.091206e-002
         vertex -3.264694e-003 -7.000000e-003 -1.042862e-002
      endloop
   endfacet
   facet normal -2.185010e-001 0.000000e+000 -9.758368e-001
      outer loop
         vertex -5.841191e-004 7.000000e-003 -1.091206e-002
         vertex -3.264694e-003 -7.000000e-003 -1.042862e-002
         vertex -3.264694e-003 7.000000e-003 -1.042862e-002
      endloop
   endfacet
   facet normal -3.769455e-001 0.000000e+000 -9.262354e-001
      outer loop
         vertex -3.264694e-003 7.000000e-003 -1.042862e-002
         vertex -3.264694e-003 -7.000000e-003 -1.042862e-002
         vertex -5.742433e-003 -7.000000e-003 -9.297245e-003
      endloop
   endfacet
   facet normal -4.530526e-001 0.000000e+000 -8.914838e-001
      outer loop
         vertex -3.264694e-003 7.000000e-003 -1.042862e-002
         vertex -5.742433e-003 -7.000000e-003 -9.297245e-003
         vertex -5.742433e-003 7.000000e-003 -9.297245e-003
      endloop
   endfacet
   facet normal -5.943079e-001 0.000000e+000 -8.042376e-001
      outer loop
         vertex -5.742433e-003 7.000000e-003 -9.297245e-003
         vertex -5.742433e-003 -7.000000e-003 -9.297245e-003
         vertex -7.863397e-003 -7.000000e-003 -7.588235e-003
      endloop
   endfacet
   facet normal -6.594561e-001 0.000000e+000 -7.517431e-001
      outer loop
         vertex -5.742433e-003 7.000000e-003 -9.297245e-003
         vertex -7.863397e-003 -7.000000e-003 -7.588235e-003
         vertex -7.863397e-003 7.000000e-003 -7.588235e-003
      endloop
   endfacet
   facet normal -7.747461e-001 0.000000e+000 -6.322725e-001
      outer loop
         vertex -7.863397e-003 7.000000e-003 -7.588235e-003
         vertex -7.863397e-003 -7.000000e-003 -7.588235e-003
         vertex -9.495807e-003 -7.000000e-003 -5.407768e-003
      endloop
   endfacet
   facet normal -8.248878e-001 0.000000e+000 -5.652966e-001
      outer loop
         vertex -7.863397e-003 7.000000e-003 -7.588235e-003
         vertex -9.495807e-003 -7.000000e-003 -5.407768e-003
         vertex -9.495807e-003 7.000000e-003 -5.407768e-003
      endloop
   endfacet
   facet normal -9.070493e-001 0.000000e+000 -4.210245e-001
      outer loop
         vertex -9.495807e-003 7.000000e-003 -5.407768e-003
         vertex -9.495807e-003 -7.000000e-003 -5.407768e-003
         vertex -1.053824e-002 -7.000000e-003 -2.891318e-003
      endloop
   endfacet
   facet normal -9.390692e-001 0.000000e+000 -3.437283e-001
      outer loop
         vertex -9.495807e-003 7.000000e-003 -5.407768e-003
         vertex -1.053824e-002 -7.000000e-003 -2.891318e-003
         vertex -1.053824e-002 7.000000e-003 -2.891318e-003
      endloop
   endfacet
   facet normal -9.829977e-001 0.000000e+000 -1.836182e-001
      outer loop
         vertex -1.053824e-002 7.000000e-003 -2.891318e-003
         vertex -1.053824e-002 -7.000000e-003 -2.891318e-003
         vertex -1.092594e-002 -7.000000e-003 -1.952295e-004
      endloop
   endfacet
   facet normal -9.949063e-001 0.000000e+000 -1.008042e-001
      outer loop
         vertex -1.053824e-002 7.000000e-003 -2.891318e-003
         vertex -1.092594e-002 -7.000000e-003 -1.952295e-004
         vertex -1.092594e-002 7.000000e-003 -1.952295e-004
      endloop
   endfacet
   facet normal -9.978725e-001 0.000000e+000 6.519628e-002
      outer loop
         vertex -1.092594e-002 7.000000e-003 -1.952295e-004
         vertex -1.092594e-002 -7.000000e-003 -1.952295e-004
         vertex -1.063481e-002 -7.000000e-003 2.512988e-003
      endloop
   endfacet
   facet normal -9.889300e-001 0.000000e+000 1.483828e-001
      outer loop
         vertex -1.092594e-002 7.000000e-003 -1.952295e-004
         vertex -1.063481e-002 -7.000000e-003 2.512988e-003
         vertex -1.063481e-002 7.000000e-003 2.512988e-003
      endloop
   endfacet
   facet normal -9.507496e-001 0.000000e+000 3.099601e-001
      outer loop
         vertex -1.063481e-002 7.000000e-003 2.512988e-003
         vertex -1.063481e-002 -7.000000e-003 2.512988e-003
         vertex -9.682941e-003 -7.000000e-003 5.065074e-003
      endloop
   endfacet
   facet normal -9.215116e-001 0.000000e+000 3.883509e-001
      outer loop
         vertex -1.063481e-002 7.000000e-003 2.512988e-003
         vertex -9.682941e-003 -7.000000e-003 5.065074e-003
         vertex -9.682941e-003 7.000000e-003 5.065074e-003
      endloop
   endfacet
   facet normal -8.445567e-001 0.000000e+000 5.354661e-001
      outer loop
         vertex -9.682941e-003 7.000000e-003 5.065074e-003
         vertex -9.682941e-003 -7.000000e-003 5.065074e-003
         vertex -8.129471e-003 -7.000000e-003 7.302467e-003
      endloop
   endfacet
   facet normal -7.968398e-001 0.000000e+000 6.041906e-001
      outer loop
         vertex -9.682941e-003 7.000000e-003 5.065074e-003
         vertex -8.129471e-003 -7.000000e-003 7.302467e-003
         vertex -8.129471e-003 7.000000e-003 7.302467e-003
      endloop
   endfacet
   facet normal -6.858916e-001 0.000000e+000 7.277037e-001
      outer loop
         vertex -8.129471e-003 7.000000e-003 7.302467e-003
         vertex -8.129471e-003 -7.000000e-003 7.302467e-003
         vertex -6.070917e-003 -7.000000e-003 9.086158e-003
      endloop
   endfacet
   facet normal -6.226603e-001 0.000000e+000 7.824922e-001
      outer loop
         vertex -8.129471e-003 7.000000e-003 7.302467e-003
         vertex -6.070917e-003 -7.000000e-003 9.086158e-003
         vertex -6.070917e-003 7.000000e-003 9.086158e-003
      endloop
   endfacet
   facet normal -4.846121e-001 0.000000e+000 8.747292e-001
      outer loop
         vertex -6.070917e-003 7.000000e-003 9.086158e-003
         vertex -6.070917e-003 -7.000000e-003 9.086158e-003
         vertex -3.635178e-003 -7.000000e-003 1.030533e-002
      endloop
   endfacet
   facet normal -4.097951e-001 0.000000e+000 9.121776e-001
      outer loop
         vertex -6.070917e-003 7.000000e-003 9.086158e-003
         vertex -3.635178e-003 -7.000000e-003 1.030533e-002
         vertex -3.635178e-003 7.000000e-003 1.030533e-002
      endloop
   endfacet
   facet normal -2.532237e-001 0.000000e+000 9.674078e-001
      outer loop
         vertex -3.635178e-003 7.000000e-003 1.030533e-002
         vertex -3.635178e-003 -7.000000e-003 1.030533e-002
         vertex -9.735861e-004 -7.000000e-003 1.088423e-002
      endloop
   endfacet
   facet normal -1.714694e-001 0.000000e+000 9.851894e-001
      outer loop
         vertex -3.635178e-003 7.000000e-003 1.030533e-002
         vertex -9.735861e-004 -7.000000e-003 1.088423e-002
         vertex -9.735861e-004 7.000000e-003 1.088423e-002
      endloop
   endfacet
   facet normal -6.102632e-003 0.000000e+000 9.999814e-001
      outer loop
         vertex -9.735861e-004 7.000000e-003 1.088423e-002
         vertex -9.735861e-004 -7.000000e-003 1.088423e-002
         vertex 1.748495e-003 -7.000000e-003 1.078689e-002
      endloop
   endfacet
   facet normal 7.750974e-002 0.000000e+000 9.969916e-001
      outer loop
         vertex -9.735861e-004 7.000000e-003 1.088423e-002
         vertex 1.748495e-003 -7.000000e-003 1.078689e-002
         vertex 1.748495e-003 7.000000e-003 1.078689e-002
      endloop
   endfacet
   facet normal 2.413977e-001 0.000000e+000 9.704263e-001
      outer loop
         vertex 1.748495e-003 7.000000e-003 1.078689e-002
         vertex 1.748495e-003 -7.000000e-003 1.078689e-002
         vertex 4.361942e-003 -7.000000e-003 1.001937e-002
      endloop
   endfacet
   facet normal 3.216732e-001 0.000000e+000 9.468508e-001
      outer loop
         vertex 1.748495e-003 7.000000e-003 1.078689e-002
         vertex 4.361942e-003 -7.000000e-003 1.001937e-002
         vertex 4.361942e-003 7.000000e-003 1.001937e-002
      endloop
   endfacet
   facet normal 2.038634e-001 0.000000e+000 9.789993e-001
      outer loop
         vertex 3.380317e-002 7.000000e-003 3.888631e-003
         vertex 4.361942e-003 7.000000e-003 1.001937e-002
         vertex 3.380317e-002 -7.000000e-003 3.888631e-003
      endloop
   endfacet
   facet normal 2.038634e-001 0.000000e+000 9.789993e-001
      outer loop
         vertex 3.380317e-002 -7.000000e-003 3.888631e-003
         vertex 4.361942e-003 7.000000e-003 1.001937e-002
         vertex 4.361942e-003 -7.000000e-003 1.001937e-002
      endloop
   endfacet
   facet normal 1.131730e-001 0.000000e+000 9.935753e-001
      outer loop
         vertex 5.868717e-002 7.000000e-003 1.054223e-003
         vertex 3.380317e-002 7.000000e-003 3.888631e-003
         vertex 5.868717e-002 -7.000000e-003 1.054223e-003
      endloop
   endfacet
   facet normal 1.131730e-001 0.000000e+000 9.935753e-001
      outer loop
         vertex 5.868717e-002 -7.000000e-003 1.054223e-003
         vertex 3.380317e-002 7.000000e-003 3.888631e-003
         vertex 3.380317e-002 -7.000000e-003 3.888631e-003
      endloop
   endfacet
   facet normal 8.135540e-001 0.000000e+000 5.814893e-001
      outer loop
         vertex 5.984925e-002 7.000000e-003 -5.716328e-004
         vertex 5.868717e-002 7.000000e-003 1.054223e-003
         vertex 5.984925e-002 -7.000000e-003 -5.716328e-004
      endloop
   endfacet
   facet normal 8.135540e-001 0.000000e+000 5.814893e-001
      outer loop
         vertex 5.984925e-002 -7.000000e-003 -5.716328e-004
         vertex 5.868717e-002 7.000000e-003 1.054223e-003
         vertex 5.868717e-002 -7.000000e-003 1.054223e-003
      endloop
   endfacet
   facet normal 1.000000e+000 0.000000e+000 0.000000e+000
      outer loop
         vertex 5.984925e-002 7.000000e-003 -9.514978e-003
         vertex 5.984925e-002 7.000000e-003 -5.716328e-004
         vertex 5.984925e-002 -7.000000e-003 -9.514978e-003
      endloop
   endfacet
   facet normal 1.000000e+000 0.000000e+000 0.000000e+000
      outer loop
         vertex 5.984925e-002 -7.000000e-003 -9.514978e-003
         vertex 5.984925e-002 7.000000e-003 -5.716328e-004
         vertex 5.984925e-002 -7.000000e-003 -5.716328e-004
      endloop
   endfacet
   facet normal 5.814893e-001 0.000000e+000 -8.135540e-001
      outer loop
         vertex 5.819228e-002 7.000000e-003 -1.069930e-002
         vertex 5.984925e-002 7.000000e-003 -9.514978e-003
         vertex 5.819228e-002 -7.000000e-003 -1.069930e-002
      endloop
   endfacet
   facet normal 5.814893e-001 0.000000e+000 -8.135540e-001
      outer loop
         vertex 5.819228e-002 -7.000000e-003 -1.069930e-002
         vertex 5.984925e-002 7.000000e-003 -9.514978e-003
         vertex 5.984925e-002 -7.000000e-003 -9.514978e-003
      endloop
   endfacet
   facet normal 9.805711e-002 0.000000e+000 -9.951808e-001
      outer loop
         vertex 5.587443e-002 7.000000e-003 -1.092769e-002
         vertex 5.819228e-002 7.000000e-003 -1.069930e-002
         vertex 5.587443e-002 -7.000000e-003 -1.092769e-002
      endloop
   endfacet
   facet normal 9.805711e-002 0.000000e+000 -9.951808e-001
      outer loop
         vertex 5.587443e-002 -7.000000e-003 -1.092769e-002
         vertex 5.819228e-002 7.000000e-003 -1.069930e-002
         vertex 5.819228e-002 -7.000000e-003 -1.069930e-002
      endloop
   endfacet
   facet normal -2.839846e-001 0.000000e+000 -9.588289e-001
      outer loop
         vertex 5.110464e-002 7.000000e-003 -9.514978e-003
         vertex 5.587443e-002 7.000000e-003 -1.092769e-002
         vertex 5.110464e-002 -7.000000e-003 -9.514978e-003
      endloop
   endfacet
   facet normal -2.839846e-001 0.000000e+000 -9.588289e-001
      outer loop
         vertex 5.110464e-002 -7.000000e-003 -9.514978e-003
         vertex 5.587443e-002 7.000000e-003 -1.092769e-002
         vertex 5.587443e-002 -7.000000e-003 -1.092769e-002
      endloop
   endfacet
   facet normal -1.297753e-001 0.000000e+000 9.915434e-001
      outer loop
         vertex -5.960464e-011 7.000000e-003 -4.180470e-003
         vertex -5.960464e-011 -7.000000e-003 -4.180470e-003
         vertex 1.599797e-003 7.000000e-003 -3.862251e-003
      endloop
   endfacet
   facet normal -2.595505e-001 0.000000e+000 9.657295e-001
      outer loop
         vertex 1.599797e-003 7.000000e-003 -3.862251e-003
         vertex -5.960464e-011 -7.000000e-003 -4.180470e-003
         vertex 1.599797e-003 -7.000000e-003 -3.862251e-003
      endloop
   endfacet
   facet normal -4.993440e-001 0.000000e+000 8.664038e-001
      outer loop
         vertex 1.599797e-003 7.000000e-003 -3.862251e-003
         vertex 1.599797e-003 -7.000000e-003 -3.862251e-003
         vertex 2.956038e-003 7.000000e-003 -2.956038e-003
      endloop
   endfacet
   facet normal -6.093621e-001 0.000000e+000 7.928920e-001
      outer loop
         vertex 2.956038e-003 7.000000e-003 -2.956038e-003
         vertex 1.599797e-003 -7.000000e-003 -3.862251e-003
         vertex 2.956038e-003 -7.000000e-003 -2.956038e-003
      endloop
   endfacet
   facet normal -7.928920e-001 0.000000e+000 6.093621e-001
      outer loop
         vertex 2.956038e-003 7.000000e-003 -2.956038e-003
         vertex 2.956038e-003 -7.000000e-003 -2.956038e-003
         vertex 3.862251e-003 7.000000e-003 -1.599796e-003
      endloop
   endfacet
   facet normal -8.664038e-001 0.000000e+000 4.993440e-001
      outer loop
         vertex 3.862251e-003 7.000000e-003 -1.599796e-003
         vertex 2.956038e-003 -7.000000e-003 -2.956038e-003
         vertex 3.862251e-003 -7.000000e-003 -1.599796e-003
      endloop
   endfacet
   facet normal -9.657295e-001 0.000000e+000 2.595505e-001
      outer loop
         vertex 3.862251e-003 7.000000e-003 -1.599796e-003
         vertex 3.862251e-003 -7.000000e-003 -1.599796e-003
         vertex 4.180470e-003 7.000000e-003 -5.960464e-011
      endloop
   endfacet
   facet normal -9.915434e-001 0.000000e+000 1.297753e-001
      outer loop
         vertex 4.180470e-003 7.000000e-003 -5.960464e-011
         vertex 3.862251e-003 -7.000000e-003 -1.599796e-003
         vertex 4.180470e-003 -7.000000e-003 -5.960464e-011
      endloop
   endfacet
   facet normal -9.915434e-001 0.000000e+000 -1.297753e-001
      outer loop
         vertex 4.180470e-003 7.000000e-003 -5.960464e-011
         vertex 4.180470e-003 -7.000000e-003 -5.960464e-011
         vertex 3.862251e-003 7.000000e-003 1.599797e-003
      endloop
   endfacet
   facet normal -9.657295e-001 0.000000e+000 -2.595505e-001
      outer loop
         vertex 3.862251e-003 7.000000e-003 1.599797e-003
         vertex 4.180470e-003 -7.000000e-003 -5.960464e-011
         vertex 3.862251e-003 -7.000000e-003 1.599797e-003
      endloop
   endfacet
   facet normal -8.664038e-001 0.000000e+000 -4.993440e-001
      outer loop
         vertex 3.862251e-003 7.000000e-003 1.599797e-003
         vertex 3.862251e-003 -7.000000e-003 1.599797e-003
         vertex 2.956038e-003 7.000000e-003 2.956038e-003
      endloop
   endfacet
   facet normal -7.928920e-001 0.000000e+000 -6.093621e-001
      outer loop
         vertex 2.956038e-003 7.000000e-003 2.956038e-003
         vertex 3.862251e-003 -7.000000e-003 1.599797e-003
         vertex 2.956038e-003 -7.000000e-003 2.956038e-003
      endloop
   endfacet
   facet normal -6.093621e-001 0.000000e+000 -7.928920e-001
      outer loop
         vertex 2.956038e-003 7.000000e-003 2.956038e-003
         vertex 2.956038e-003 -7.000000e-003 2.956038e-003
         vertex 1.599797e-003 7.000000e-003 3.862251e-003
      endloop
   endfacet
   facet normal -4.993440e-001 0.000000e+000 -8.664038e-001
      outer loop
         vertex 1.599797e-003 7.000000e-003 3.862251e-003
         vertex 2.956038e-003 -7.000000e-003 2.956038e-003
         vertex 1.599797e-003 -7.000000e-003 3.862251e-003
      endloop
   endfacet
   facet normal -2.595505e-001 0.000000e+000 -9.657295e-001
      outer loop
         vertex 1.599797e-003 7.000000e-003 3.862251e-003
         vertex 1.599797e-003 -7.000000e-003 3.862251e-003
         vertex -5.960464e-011 7.000000e-003 4.180470e-003
      endloop
   endfacet
   facet normal -1.297753e-001 0.000000e+000 -9.915434e-001
      outer loop
         vertex -5.960464e-011 7.000000e-003 4.180470e-003
         vertex 1.599797e-003 -7.000000e-003 3.862251e-003
         vertex -5.960464e-011 -7.000000e-003 4.180470e-003
      endloop
   endfacet
   facet normal 1.297753e-001 0.000000e+000 -9.915434e-001
      outer loop
         vertex -5.960464e-011 7.000000e-003 4.180470e-003
         vertex -5.960464e-011 -7.000000e-003 4.180470e-003
         vertex -1.599796e-003 7.000000e-003 3.862251e-003
      endloop
   endfacet
   facet normal 2.595505e-001 0.000000e+000 -9.657295e-001
      outer loop
         vertex -1.599796e-003 7.000000e-003 3.862251e-003
         vertex -5.960464e-011 -7.000000e-003 4.180470e-003
         vertex -1.599796e-003 -7.000000e-003 3.862251e-003
      endloop
   endfacet
   facet normal 4.993440e-001 0.000000e+000 -8.664038e-001
      outer loop
         vertex -1.599796e-003 7.000000e-003 3.862251e-003
         vertex -1.599796e-003 -7.000000e-003 3.862251e-003
         vertex -2.956038e-003 7.000000e-003 2.956038e-003
      endloop
   endfacet
   facet normal 6.093621e-001 0.000000e+000 -7.928920e-001
      outer loop
         vertex -2.956038e-003 7.000000e-003 2.956038e-003
         vertex -1.599796e-003 -7.000000e-003 3.862251e-003
         vertex -2.956038e-003 -7.000000e-003 2.956038e-003
      endloop
   endfacet
   facet normal 7.928920e-001 0.000000e+000 -6.093621e-001
      outer loop
         vertex -2.956038e-003 7.000000e-003 2.956038e-003
         vertex -2.956038e-003 -7.000000e-003 2.956038e-003
         vertex -3.862251e-003 7.000000e-003 1.599797e-003
      endloop
   endfacet
   facet normal 8.664038e-001 0.000000e+000 -4.993440e-001
      outer loop
         vertex -3.862251e-003 7.000000e-003 1.599797e-003
         vertex -2.956038e-003 -7.000000e-003 2.956038e-003
         vertex -3.862251e-003 -7.000000e-003 1.599797e-003
      endloop
   endfacet
   facet normal 9.657295e-001 0.000000e+000 -2.595505e-001
      outer loop
         vertex -3.862251e-003 7.000000e-003 1.599797e-003
         vertex -3.862251e-003 -7.000000e-003 1.599797e-003
         vertex -4.180470e-003 7.000000e-003 -5.960464e-011
      endloop
   endfacet
   facet normal 9.915434e-001 0.000000e+000 -1.297753e-001
      outer loop
         vertex -4.180470e-003 7.000000e-003 -5.960464e-011
         vertex -3.862251e-003 -7.000000e-003 1.599797e-003
         vertex -4.180470e-003 -7.000000e-003 -5.960464e-011
      endloop
   endfacet
   facet normal 9.915434e-001 0.000000e+000 1.297753e-001
      outer loop
         vertex -4.180470e-003 7.000000e-003 -5.960464e-011
         vertex -4.180470e-003 -7.000000e-003 -5.960464e-011
         vertex -3.862251e-003 7.000000e-003 -1.599796e-003
      endloop
   endfacet
   facet normal 9.657295e-001 0.000000e+000 2.595505e-001
      outer loop
         vertex -3.862251e-003 7.000000e-003 -1.599796e-003
         vertex -4.180470e-003 -7.000000e-003 -5.960464e-011
         vertex -3.862251e-003 -7.000000e-003 -1.599796e-003
      endloop
   endfacet
   facet normal 8.664038e-001 0.000000e+000 4.993440e-001
      outer loop
         vertex -3.862251e-003 7.000000e-003 -1.599796e-003
         vertex -3.862251e-003 -7.000000e-003 -1.599796e-003
         vertex -2.956038e-003 7.000000e-003 -2.956038e-003
      endloop
   endfacet
   facet normal 7.928920e-001 0.000000e+000 6.093621e-001
      outer loop
         vertex -2.956038e-003 7.000000e-003 -2.956038e-003
         vertex -3.862251e-003 -7.000000e-003 -1.599796e-003
         vertex -2.956038e-003 -7.000000e-003 -2.956038e-003
      endloop
   endfacet
   facet normal 6.093621e-001 0.000000e+000 7.928920e-001
      outer loop
         vertex -2.956038e-003 7.000000e-003 -2.956038e-003
         vertex -2.956038e-003 -7.000000e-003 -2.956038e-003
         vertex -1.599796e-003 7.000000e-003 -3.862251e-003
      endloop
   endfacet
   facet normal 4.993440e-001 0.000000e+000 8.664038e-001
      outer loop
         vertex -1.599796e-003 7.000000e-003 -3.862251e-003
         vertex -2.956038e-003 -7.000000e-003 -2.956038e-003
         vertex -1.599796e-003 -7.000000e-003 -3.862251e-003
      endloop
   endfacet
   facet normal 2.595505e-001 0.000000e+000 9.657295e-001
      outer loop
         vertex -1.599796e-003 7.000000e-003 -3.862251e-003
         vertex -1.599796e-003 -7.000000e-003 -3.862251e-003
         vertex -5.960464e-011 7.000000e-003 -4.180470e-003
      endloop
   endfacet
   facet normal 1.297753e-001 0.000000e+000 9.915434e-001
      outer loop
         vertex -5.960464e-011 7.000000e-003 -4.180470e-003
         vertex -1.599796e-003 -7.000000e-003 -3.862251e-003
         vertex -5.960464e-011 -7.000000e-003 -4.180470e-003
      endloop
   endfacet
endsolid